<?xml version="1.0" encoding="UTF-8"?>
<svg version="1.1" xmlns="http://www.w3.org/2000/svg" width="2048" height="968">
<path d="M0 0 C3.87199166 0.00710577 7.74390522 -0.00909045 11.61587238 -0.02199733 C19.16839217 -0.04345573 26.72076024 -0.04355764 34.27330039 -0.03537179 C40.42148326 -0.0290294 46.56962244 -0.03024727 52.71780491 -0.03664386 C53.59836153 -0.03754552 54.47891814 -0.03844717 55.38615829 -0.03937615 C57.17593674 -0.04122766 58.96571517 -0.04309023 60.7554936 -0.04496371 C77.47577454 -0.06147893 94.19597069 -0.05287675 110.91624649 -0.03597813 C126.15573854 -0.02128739 141.3950333 -0.03591197 156.63449995 -0.06474829 C172.35045268 -0.09426072 188.06631473 -0.1050802 203.78229392 -0.09556609 C205.56549524 -0.09454373 207.34869657 -0.09354911 209.13189793 -0.09258258 C210.0088748 -0.09210619 210.88585168 -0.0916298 211.78940361 -0.09113898 C217.91647983 -0.0889904 224.04346866 -0.09869511 230.17052555 -0.11335361 C237.65725022 -0.13101804 245.14372384 -0.13056018 252.63043927 -0.10800195 C256.43730073 -0.09698598 260.24372229 -0.09340255 264.05056286 -0.11230266 C306.56206981 -0.30732327 306.56206981 -0.30732327 322.85372102 8.61746985 C324.81494562 9.71437391 324.81494562 9.71437391 328.05866718 10.97505772 C332.18715548 12.81813285 335.81425499 15.01715373 339.55866718 17.53755772 C340.82903828 18.38640538 340.82903828 18.38640538 342.12507343 19.25240147 C363.52129225 34.13540432 378.57392922 56.36183699 383.56718737 82.01692992 C385.59807309 94.20774811 384.99024474 106.7745968 384.96550024 119.09981537 C384.96072832 123.11154381 384.97331364 127.12322615 384.98351765 131.13493931 C385.00063314 138.97447677 385.00156077 146.81393382 384.99630474 154.6534851 C384.99224806 161.03166695 384.9937243 167.40982521 384.999053 173.78800595 C384.99980142 174.69899694 385.00054985 175.60998794 385.00132095 176.54858473 C385.00285257 178.39981829 385.00439092 180.25105185 385.00593591 182.10228541 C385.01963484 199.42703941 385.01424175 216.75174814 385.0027507 234.07650109 C384.99282208 249.8895167 385.00575724 265.70241523 385.02968489 281.51541279 C385.05412924 297.79385184 385.06367062 314.0722365 385.05703217 330.35069352 C385.05355165 339.47312378 385.0556944 348.59546409 385.0732832 357.71788037 C385.08807216 365.48378681 385.08855388 373.24953995 385.07121228 381.0154436 C385.06275442 384.96929985 385.06042318 388.92288303 385.07586384 392.87672436 C385.23084164 435.65639147 385.23084164 435.65639147 374.03132343 454.04537022 C372.50878022 456.46327504 372.50878022 456.46327504 371.62116718 458.98677647 C370.31572337 462.12080151 368.55556629 464.60799222 366.55866718 467.35005772 C365.85741718 468.32587803 365.15616718 469.30169835 364.43366718 470.30708897 C363.81491718 471.04314366 363.19616718 471.77919835 362.55866718 472.53755772 C361.89866718 472.53755772 361.23866718 472.53755772 360.55866718 472.53755772 C360.21835468 473.62037022 360.21835468 473.62037022 359.87116718 474.72505772 C353.25907643 488.89382363 331.4192706 499.4130602 317.55866718 504.53755772 C300.82023865 510.23180667 283.91362896 510.26541878 266.44539952 510.19118106 C262.44119831 510.17971359 258.43709932 510.19740527 254.4329195 510.21108067 C246.61807269 510.23315594 238.80346782 510.22858272 230.98861206 510.21401747 C224.62962467 510.20266272 218.27070443 510.20122107 211.91170979 510.20663655 C210.54710563 510.2077858 210.54710563 510.2077858 209.15493372 510.20895826 C207.30603927 510.21055711 205.45714485 510.21217818 203.60825044 510.21382122 C186.32629785 510.22803269 169.04447851 510.2117586 151.76254779 510.18481939 C136.97756131 510.16248481 122.19277122 510.16636624 107.40778828 510.18941319 C90.18194496 510.21625292 72.95621801 510.22665982 55.73035669 510.21135187 C53.88877934 510.20975935 52.04720197 510.2081875 50.20562458 510.20663655 C49.29985378 510.20586517 48.39408298 510.20509379 47.46086457 510.20429904 C41.11954042 510.20000648 34.77829093 510.20721543 28.43697834 510.21903431 C20.69463109 510.23314913 12.95253684 510.22907278 5.21021807 510.20263059 C1.27021077 510.18961183 -2.66937686 510.18413185 -6.60937977 510.20087636 C-27.04824738 510.28049637 -47.28385717 510.07702933 -65.44133282 499.53755772 C-66.61695782 499.06318272 -67.79258282 498.58880772 -69.00383282 498.10005772 C-72.75845753 496.39341012 -75.95454408 494.29476549 -79.32805157 491.93990147 C-81.39198084 490.50586558 -81.39198084 490.50586558 -83.57023907 489.48677647 C-86.421122 488.04050392 -88.23515185 485.84401964 -90.44133282 483.53755772 C-91.81363939 482.15986956 -93.1888122 480.78503247 -94.56633282 479.41255772 C-95.85799948 478.12089105 -97.14966615 476.82922439 -98.44133282 475.53755772 C-98.98918438 475.00646397 -99.53703594 474.47537022 -100.10148907 473.92818272 C-101.95270909 472.00679984 -103.08869162 469.84205755 -104.44133282 467.53755772 C-105.37666032 466.18188959 -106.31442558 464.827902 -107.25383282 463.47505772 C-112.30552836 455.91008081 -116.42679226 447.92081091 -118.73464781 439.09604573 C-119.17413585 437.50491975 -119.65903856 435.92477729 -120.21165413 434.36931992 C-122.76394711 427.05008484 -122.87014769 420.14380462 -122.84247112 412.44798863 C-122.84808506 411.03879986 -122.85499099 409.62961576 -122.86306709 408.22043896 C-122.88132324 404.37085061 -122.88103198 400.52145867 -122.87748396 396.67183697 C-122.87686942 392.51068853 -122.8934526 388.34960177 -122.90765667 384.1884824 C-122.93252702 376.0429951 -122.94081907 367.89757294 -122.9424938 359.75205083 C-122.94392216 353.1244003 -122.95010075 346.49677115 -122.95959568 339.86912739 C-122.98600638 321.04873904 -122.99985587 302.2284019 -122.99760426 283.40799488 C-122.99748439 282.3943639 -122.99736452 281.38073292 -122.99724102 280.33638585 C-122.99711838 279.3215062 -122.99699574 278.30662656 -122.99686938 277.26099299 C-122.99565147 260.83390768 -123.02432495 244.40702916 -123.06665612 227.98000361 C-123.1098504 211.08363036 -123.13046085 194.1873577 -123.12787479 177.29092789 C-123.12688215 167.81676567 -123.13497816 158.34282001 -123.16740894 148.86870778 C-123.19486063 140.79778085 -123.20113928 132.72716855 -123.18088067 124.65621491 C-123.17115133 120.54620663 -123.17066913 116.4368003 -123.19694042 112.32685101 C-123.31637384 92.37579402 -122.823478 74.14238532 -112.44133282 56.53755772 C-111.68092709 54.26769879 -111.68092709 54.26769879 -111.44133282 52.53755772 C-110.78133282 52.53755772 -110.12133282 52.53755772 -109.44133282 52.53755772 C-109.07008282 51.48568272 -109.07008282 51.48568272 -108.69133282 50.41255772 C-107.27542082 47.15596012 -105.45127479 44.46110968 -103.44133282 41.53755772 C-103.02883282 40.73318272 -102.61633282 39.92880772 -102.19133282 39.10005772 C-100.01287665 35.91017547 -97.38682157 33.7268286 -94.44133282 31.25240147 C-92.71235153 29.76993509 -91.13461894 28.24769165 -89.56633282 26.60005772 C-87.44133282 24.53755772 -87.44133282 24.53755772 -85.44133282 24.53755772 C-84.78133282 23.21755772 -84.12133282 21.89755772 -83.44133282 20.53755772 C-82.45133282 20.53755772 -81.46133282 20.53755772 -80.44133282 20.53755772 C-80.44133282 19.87755772 -80.44133282 19.21755772 -80.44133282 18.53755772 C-54.25557376 2.85793907 -30.22584757 -0.09012446 0 0 Z " fill="#131F29" transform="translate(1155.4413328170776,229.462442278862)"/>
<path d="M0 0 C4.77236903 3.38529199 7.15215665 7.80040705 9.71484375 12.92578125 C9.86628939 15.52365654 9.94621356 18.07686946 9.96484375 20.67578125 C9.98546875 21.37960937 10.00609375 22.0834375 10.02734375 22.80859375 C10.06292773 27.59463954 9.22823773 30.71915343 6.71484375 34.92578125 C6.05484375 34.92578125 5.39484375 34.92578125 4.71484375 34.92578125 C4.38484375 36.24578125 4.05484375 37.56578125 3.71484375 38.92578125 C1.73484375 39.42078125 1.73484375 39.42078125 -0.28515625 39.92578125 C-0.28515625 40.58578125 -0.28515625 41.24578125 -0.28515625 41.92578125 C-7.35528349 46.0833718 -15.31931657 46.25117368 -23.28515625 44.92578125 C-30.0625011 42.27930867 -34.87763193 37.16195918 -38.28125 30.80078125 C-40.51118486 24.41466429 -40.52536497 17.66272594 -38.39453125 11.2421875 C-35.11130592 4.75234543 -30.14453238 -0.0437243 -23.47265625 -2.94921875 C-14.77011271 -5.7053026 -7.96609102 -4.29574277 0 0 Z " fill="#111922" transform="translate(806.28515625,406.07421875)"/>
<path d="M0 0 C6.49360692 3.53353416 9.46453571 8.11657143 12.6875 14.5625 C13.45853083 23.00479956 14.12217961 30.79725534 8.546875 37.7265625 C1.68706968 44.49989968 -3.44325563 46.90244886 -12.98876953 47.02880859 C-20.59940982 46.88701664 -25.95962137 43.91537863 -31.3125 38.5625 C-31.3125 37.5725 -31.3125 36.5825 -31.3125 35.5625 C-31.9725 35.5625 -32.6325 35.5625 -33.3125 35.5625 C-37.09847889 28.92696785 -37.19463364 23.04803405 -36.3125 15.5625 C-33.72987283 7.63096501 -28.09547523 2.74498571 -21.0625 -1.3125 C-13.43866757 -3.59964973 -7.30148795 -3.2612105 0 0 Z " fill="#111922" transform="translate(803.3125,462.4375)"/>
<path d="M0 0 C1.0725 0.598125 2.145 1.19625 3.25 1.8125 C3.84554687 2.14121094 4.44109375 2.46992188 5.0546875 2.80859375 C10.94305291 6.46039119 14.18384188 11.62026099 15.8828125 18.30078125 C16.98777268 25.8591791 15.17013336 32.09520551 11.125 38.5 C6.78917348 43.92612208 2.29621881 47.58621391 -4.76171875 48.4296875 C-12.92161766 48.97750913 -19.35400395 48.35813887 -25.79296875 42.8515625 C-31.77854238 36.61509656 -33.4636355 31.67281106 -33.828125 22.9453125 C-33.69308195 17.53008606 -32.80083324 13.38874986 -29.75 8.8125 C-29.09 8.8125 -28.43 8.8125 -27.75 8.8125 C-27.69585938 8.21953125 -27.64171875 7.6265625 -27.5859375 7.015625 C-26.02563106 2.9034155 -21.87287204 1.79634002 -18.08984375 0.01953125 C-11.75118859 -2.27128097 -6.36468979 -2.0154851 0 0 Z " fill="#111922" transform="translate(742.75,461.1875)"/>
<path d="M0 0 C6.43759131 6.82357109 8.58065781 13.22353707 8.453125 22.5546875 C7.73221442 28.03609383 5.53802025 32.74788392 2 37 C-0.203125 37.796875 -0.203125 37.796875 -2 38 C-2 38.66 -2 39.32 -2 40 C-7.01989955 43.00240828 -10.82567833 43.46475201 -16.5 43.375 C-17.23347656 43.38660156 -17.96695313 43.39820313 -18.72265625 43.41015625 C-25.69977971 43.37271194 -30.97635665 40.89483199 -36 36 C-41.27208174 29.71405639 -41.98243969 22.76030152 -41.5546875 14.828125 C-40.56583026 8.00361727 -37.35911234 4.24115672 -32.5 -0.375 C-21.81144639 -7.32255985 -10.40780542 -8.09938204 0 0 Z " fill="#111922" transform="translate(808,523)"/>
<path d="M0 0 C1.85864546 1.47645646 3.48531202 3.02311842 5.1171875 4.74609375 C5.62765625 5.27589844 6.138125 5.80570312 6.6640625 6.3515625 C10.19157661 10.84022512 10.57216087 15.29667039 10.6171875 20.87109375 C10.62355225 21.55220215 10.62991699 22.23331055 10.63647461 22.93505859 C10.52001739 27.55846646 9.44225969 30.77615666 7.1171875 34.74609375 C6.4571875 34.74609375 5.7971875 34.74609375 5.1171875 34.74609375 C4.7871875 36.06609375 4.4571875 37.38609375 4.1171875 38.74609375 C2.1371875 39.24109375 2.1371875 39.24109375 0.1171875 39.74609375 C0.1171875 40.40609375 0.1171875 41.06609375 0.1171875 41.74609375 C-7.0240741 45.96337422 -14.81499013 45.94487865 -22.8828125 44.74609375 C-30.85541715 41.9094797 -35.23236393 35.04699089 -38.8828125 27.74609375 C-39.74870771 19.5913338 -39.6348854 12.80979607 -34.86328125 5.94140625 C-25.47916209 -4.460714 -12.11052546 -8.06530845 0 0 Z " fill="#111922" transform="translate(805.8828125,348.25390625)"/>
<path d="M0 0 C6.64634687 3.76359401 11.5495166 8.7916625 13.9453125 16.1015625 C15.86832785 23.5933098 14.53351329 29.64053319 10.6875 36.26953125 C7.33729453 41.14838239 3.68114963 45.25970278 -2.0546875 47.1015625 C-9.5489763 48.2933924 -17.72076098 48.67035771 -24.3046875 44.4765625 C-26.32421875 42.80078125 -26.32421875 42.80078125 -28.0546875 41.1015625 C-28.57417969 40.63363281 -29.09367188 40.16570312 -29.62890625 39.68359375 C-34.23990206 34.96690176 -35.05893418 29.40123104 -35.05078125 23.06640625 C-34.72070608 17.39894534 -34.12991911 12.9149685 -31.0546875 8.1015625 C-30.3946875 8.1015625 -29.7346875 8.1015625 -29.0546875 8.1015625 C-29.0546875 7.1115625 -29.0546875 6.1215625 -29.0546875 5.1015625 C-26.97265625 3.53125 -26.97265625 3.53125 -24.2421875 1.9765625 C-23.34886719 1.45835937 -22.45554687 0.94015625 -21.53515625 0.40625 C-14.8287855 -3.1211954 -6.92519811 -2.99998461 0 0 Z " fill="#111922" transform="translate(744.0546875,403.8984375)"/>
<path d="M0 0 C5.72139651 4.51046016 8.78842853 10.13643603 9.9375 17.3125 C10.37061655 25.04844276 6.69018172 32.47251919 1.875 38.375 C0.885 38.375 -0.105 38.375 -1.125 38.375 C-1.125 39.035 -1.125 39.695 -1.125 40.375 C-5.42038516 43.86446459 -9.51441093 43.95234059 -14.8125 43.9375 C-15.61034912 43.9372583 -16.40819824 43.9370166 -17.23022461 43.93676758 C-23.90174347 43.74355725 -29.21793224 42.14286017 -34.125 37.375 C-34.62 35.89 -34.62 35.89 -35.125 34.375 C-35.599375 33.983125 -36.07375 33.59125 -36.5625 33.1875 C-40.47354111 28.65069231 -40.31131955 22.62690057 -40.125 16.9375 C-39.35178665 9.34595075 -36.77902538 4.36523184 -30.8671875 -0.47265625 C-20.36843622 -7.80099254 -10.61077293 -7.13995936 0 0 Z " fill="#111922" transform="translate(749.125,349.625)"/>
<path d="M0 0 C6.48243885 4.00663859 9.61378941 9.09819206 12.5 16 C13.62283022 23.11125807 12.83140391 29.33561527 9.0625 35.5625 C8.4025 35.5625 7.7425 35.5625 7.0625 35.5625 C6.97613281 36.15675781 6.88976562 36.75101563 6.80078125 37.36328125 C5.57850831 41.00423187 2.94832931 42.31146251 -0.20703125 44.29296875 C-7.71693953 47.78470007 -16.21882893 47.08923986 -23.9375 44.5625 C-24.5975 44.2325 -25.2575 43.9025 -25.9375 43.5625 C-25.9375 42.9025 -25.9375 42.2425 -25.9375 41.5625 C-26.659375 41.3975 -27.38125 41.2325 -28.125 41.0625 C-32.33971618 38.81465137 -34.18454293 35.96858127 -35.9375 31.5625 C-37.69893857 22.43711178 -37.63549604 14.29715827 -32.4375 6.375 C-24.31982752 -3.54225289 -11.34593617 -5.51881134 0 0 Z " fill="#111922" transform="translate(745.9375,520.4375)"/>
<path d="M0 0 C4.88033574 2.55089817 8.09652155 5.62133006 11.26171875 10.08984375 C11.78894531 10.81816406 12.31617188 11.54648437 12.859375 12.296875 C15.67022532 17.89508663 15.18618362 24.97759018 14.26171875 31.08984375 C12.13052323 37.41077593 7.95316651 42.63820946 2.2265625 46.09375 C-5.27364369 48.61358212 -15.02081689 48.69706431 -22.2890625 45.5546875 C-23.09730469 45.07128906 -23.90554688 44.58789062 -24.73828125 44.08984375 C-24.73828125 43.42984375 -24.73828125 42.76984375 -24.73828125 42.08984375 C-25.50527344 41.84878906 -26.27226563 41.60773437 -27.0625 41.359375 C-31.04291858 39.47085523 -32.00651368 36.9747324 -33.78125 33.0703125 C-36.10661113 25.82847357 -35.81487631 18.61130877 -32.73828125 11.65234375 C-26.12643994 0.10040509 -12.52798727 -4.16408136 0 0 Z " fill="#111922" transform="translate(801.73828125,576.91015625)"/>
<path d="M0 0 C5.7133347 3.82329014 10.47059215 9.36074517 12.5 16 C13.91855842 24.14059094 12.45070577 30.94159473 7.828125 37.7890625 C4.19878575 42.30247157 0.89118012 45.55424192 -5.0859375 46.33496094 C-12.13864424 46.812859 -19.5307567 47.27124468 -26 44.0625 C-26 43.4025 -26 42.7425 -26 42.0625 C-26.721875 41.8975 -27.44375 41.7325 -28.1875 41.5625 C-32.39829679 39.31674171 -34.25616605 36.46939821 -36 32.0625 C-36.78206504 27.71293277 -36.98298154 23.47595367 -37 19.0625 C-37.020625 17.845625 -37.04125 16.62875 -37.0625 15.375 C-34.99778431 8.93794521 -30.22616322 3.00463676 -24.4375 -0.5625 C-17.08260765 -3.60039032 -7.13358481 -3.52396643 0 0 Z " fill="#111922" transform="translate(746,577.9375)"/>
<path d="M0 0 C5.08086524 3.88437625 8.82016081 8.31031934 12.35546875 13.61328125 C13.30107456 21.21496951 12.62961643 28.40849728 7.84375 34.5546875 C2.52788929 40.27670386 -2.68440193 42.7189803 -10.51953125 43.17578125 C-18.07661036 42.95851523 -22.21200831 39.87524404 -27.53125 34.8203125 C-31.57146465 30.25270386 -32.40327005 26.39142156 -32.03515625 20.359375 C-31.02088148 13.2290234 -29.31839288 8.34149927 -23.64453125 3.61328125 C-22.37609375 2.49953125 -22.37609375 2.49953125 -21.08203125 1.36328125 C-15.39058971 -2.72288191 -6.16283126 -3.23161757 0 0 Z " fill="#F8F9F9" transform="translate(1266.64453125,405.38671875)"/>
<path d="M0 0 C5.68351519 3.84288231 10.987181 8.30239753 12.34375 15.3046875 C12.58338984 22.5138527 10.8590459 28.22738817 7.125 34.3125 C2.29562345 39.01135286 -4.15491775 41.67455799 -10.875 41.875 C-16.14424354 41.78309459 -20.00057738 40.83245196 -24.1875 37.5625 C-30.27106991 31.03091526 -32.52354355 26.25732735 -32.39453125 17.34375 C-31.90067519 10.70930636 -28.78179147 6.45490022 -24.06640625 2.07421875 C-16.77711692 -3.7905525 -8.08847504 -4.42530549 0 0 Z " fill="#F9F9F9" transform="translate(1267.1875,523.4375)"/>
<path d="M0 0 C5.95847356 3.49843987 9.93938379 8.47494728 11.8828125 15.10546875 C13.097044 22.40450077 10.91445064 28.03141763 6.8828125 34.10546875 C2.76486286 38.96580932 -2.93493472 41.43826111 -9.125 42.42578125 C-15.84831435 42.82127033 -20.77712579 40.02006469 -25.8671875 35.85546875 C-30.98812156 29.59654935 -32.92888036 24.26661505 -32.62890625 16.07421875 C-31.50447996 9.55082958 -27.6309005 4.98977888 -22.4296875 1.10546875 C-15.51196125 -3.07127163 -7.42635991 -3.20205397 0 0 Z " fill="#FAFAFA" transform="translate(1267.1171875,581.89453125)"/>
<path d="M0 0 C6.16141255 2.78386739 10.97447316 6.94894632 14 13 C15.46561728 19.16994127 16.72328584 25.83748643 13.578125 31.609375 C9.24132283 37.28057784 5.06273863 41.26763015 -2 43 C-5.03504712 43.27591337 -7.96254149 43.22250548 -11 43 C-11.68449219 42.95488281 -12.36898438 42.90976562 -13.07421875 42.86328125 C-18.83906188 41.991193 -21.65489047 38.70571617 -25.3359375 34.38671875 C-29.54656467 28.34753283 -30.04831046 22.1832056 -29 15 C-23.40039398 2.34002118 -13.24087752 -1.86913249 0 0 Z " fill="#F9F9F9" transform="translate(1264,463)"/>
<path d="M0 0 C4.22471892 3.77066034 6.66822255 8.20303893 7.3359375 13.83203125 C7.43628519 21.48855974 6.75551029 27.09636053 1.31640625 32.75 C-4.81131157 38.23200132 -9.39298431 39.58071575 -17.66796875 39.44140625 C-23.70601952 38.64152379 -27.67326958 35.65113033 -31.625 31.1484375 C-36.616573 24.4835531 -36.82298727 18.07675879 -36 10 C-33.80477352 3.63999805 -28.72535383 -0.71048259 -23 -4 C-14.49290218 -6.72427691 -7.31138819 -4.88278022 0 0 Z " fill="#F9FAFA" transform="translate(1330,409)"/>
<path d="M0 0 C4.16492656 3.05088152 6.94307493 7.05411861 9.234375 11.63671875 C9.94615441 19.8906223 8.95757581 25.23770205 4.609375 32.26171875 C-0.69610612 37.56719987 -5.7766491 39.9551043 -13.328125 40.26171875 C-20.8003305 39.95619633 -25.02576373 37.52468063 -30.078125 32.19921875 C-30.9134375 30.93078125 -30.9134375 30.93078125 -31.765625 29.63671875 C-32.343125 28.79109375 -32.920625 27.94546875 -33.515625 27.07421875 C-35.60164123 21.33767411 -36.06179806 15.09318024 -33.88671875 9.29296875 C-30.99736309 4.33433857 -26.45766779 -1.12245037 -20.87109375 -3 C-13.22584852 -4.31912394 -6.83516359 -3.79852244 0 0 Z " fill="#FAFAFA" transform="translate(1269.765625,349.36328125)"/>
<path d="M0 0 C4.7291294 2.73021904 9.54071695 7.15709684 11.4296875 12.37890625 C11.83809963 15.08339148 11.92025304 17.70213269 11.9375 20.4375 C11.95167969 21.45714844 11.96585938 22.47679687 11.98046875 23.52734375 C11.53172609 29.31536354 8.91286924 33.5332869 4.75 37.5 C-1.36307957 41.83124023 -7.82046068 43.70353908 -15.25 42.5 C-22.08363595 39.66110079 -26.53974639 35.84333681 -30.25 29.5 C-32.16147804 23.76556587 -32.45171718 16.75810392 -30.34375 11.04296875 C-23.93431162 0.29894223 -12.03137537 -5.300372 0 0 Z " fill="#FAFAFA" transform="translate(1325.25,581.5)"/>
<path d="M0 0 C6.05221548 3.32683895 9.52501044 7.24840065 11.75 13.875 C12.62197313 21.22593628 12.33523072 27.85100186 7.75 33.875 C2.36568964 39.71560785 -2.7524578 41.90358615 -10.6875 42.25 C-16.91908625 42.10645398 -20.51701355 40.54472287 -24.9375 36.2265625 C-29.8205938 30.85046404 -31.63899433 26.48453464 -31.43359375 19.2109375 C-30.98395111 13.48995241 -29.97180644 8.60943927 -25.921875 4.26171875 C-17.84973974 -2.43362708 -9.56420168 -4.35765402 0 0 Z " fill="#FBFBFB" transform="translate(1325.25,523.125)"/>
<path d="M0 0 C5.78505632 2.13967836 10.41297639 6.9099939 13.2734375 12.2578125 C14.7744297 21.0969888 14.78030451 27.89311311 9.625 35.50390625 C5.85432099 39.85912283 0.91222684 42.33947982 -4.87109375 42.7734375 C-15.64140878 42.93600829 -15.64140878 42.93600829 -20.1640625 39.5703125 C-25.85023173 33.88414327 -29.43542092 29.56875323 -29.6015625 21.3203125 C-29.481175 14.16126944 -27.68193974 10.00024281 -22.6015625 5.046875 C-15.56604005 -1.03885192 -9.10259559 -1.80737458 0 0 Z " fill="#FBFBFB" transform="translate(1323.1640625,463.4296875)"/>
<path d="M0 0 C3.36338731 1.96488947 5.96230002 4.40639414 8.5625 7.3125 C9.2225 7.9725 9.8825 8.6325 10.5625 9.3125 C12.52301803 16.73717151 12.81285412 24.75005353 8.90234375 31.52734375 C5.71303241 35.77665944 1.52918276 39.35752913 -3.4375 41.3125 C-10.00014027 42.15303521 -16.52727673 42.687645 -22.0625 38.625 C-27.13296174 34.0095797 -31.011474 29.4233743 -31.73828125 22.41015625 C-31.77425019 13.09420105 -29.86088052 8.42661176 -23.3515625 1.828125 C-16.97264154 -3.22293895 -7.2271872 -3.3937552 0 0 Z " fill="#FBFBFB" transform="translate(1325.4375,347.6875)"/>
<path d="M0 0 C3.5 1.375 3.5 1.375 6 3 C6.65484375 3.28488281 7.3096875 3.56976562 7.984375 3.86328125 C11.92070238 6.08318681 13.50936497 9.86714131 15 14 C16.11492857 20.69783012 15.97015238 26.31285353 12.25 32.125 C8.99962002 36.47525603 5.46302885 39.33625602 0.12890625 40.71875 C-6.05841302 41.53615732 -12.36067942 40.63042134 -18 38 C-23.16684281 33.81731773 -25.37768089 29.27275197 -26.3203125 22.80078125 C-26.62788372 16.92617104 -25.31762769 11.88479436 -22 7 C-15.01479703 0.41513475 -9.48299091 -0.71991292 0 0 Z " fill="#111922" transform="translate(853,522)"/>
<path d="M0 0 C1.97013122 1.48494965 3.6937704 2.9927557 5.40625 4.765625 C5.94507813 5.27351562 6.48390625 5.78140625 7.0390625 6.3046875 C10.83252266 10.35827064 10.78250254 15.99090997 10.65625 21.23828125 C10.13640243 26.49361532 8.45012807 30.3421549 5.34375 34.578125 C0.12186853 38.46676014 -5.70051153 40.1654914 -12.21875 39.703125 C-17.95895669 38.71099051 -22.52383965 37.14006374 -26.42578125 32.6640625 C-30.59680789 26.51008877 -31.75125102 21.10418144 -30.59375 13.765625 C-28.91094509 8.9829163 -26.28597616 6.1809342 -22.59375 2.765625 C-22.0575 2.188125 -21.52125 1.610625 -20.96875 1.015625 C-16.21080113 -3.30978307 -5.40703584 -2.5732279 0 0 Z " fill="#111922" transform="translate(687.59375,581.234375)"/>
<path d="M0 0 C5.49599851 1.97253645 8.92457085 5.12760478 11.5625 10.3125 C14.05919465 17.13832575 13.82504768 23.5415745 10.97265625 30.21484375 C8.02373008 35.62712993 3.75328275 38.2079939 -2 40 C-9.27178083 40.73872059 -15.0369003 40.07416979 -21.125 35.8125 C-25.19819764 32.10374636 -27.65148508 28.6138619 -28.3828125 23.12890625 C-28.63123235 16.49609627 -28.10029165 12.25678417 -24 7 C-16.54880722 -0.30183703 -10.26997221 -1.06241092 0 0 Z " fill="#111922" transform="translate(685,407)"/>
<path d="M0 0 C3.4921875 1.5390625 3.4921875 1.5390625 6 3 C6 3.66 6 4.32 6 5 C6.598125 5.165 7.19625 5.33 7.8125 5.5 C11.22201115 7.8379505 12.08565022 11.13720346 13 15 C13.88030056 21.84017326 12.83022999 28.13201902 8.7109375 33.76171875 C4.20406805 38.73855587 -0.77711253 40.00781322 -7.375 40.375 C-12.34286812 40.26403387 -16.85979167 38.7632194 -21 36 C-21.495 34.515 -21.495 34.515 -22 33 C-22.66 33 -23.32 33 -24 33 C-28.45307361 26.87702379 -28.97821295 21.4690635 -28 14 C-27.14584687 11.15460239 -25.91305058 9.25388144 -24 7 C-23.51015625 6.34773438 -23.0203125 5.69546875 -22.515625 5.0234375 C-16.4702069 -1.69072154 -8.34404795 -1.18221624 0 0 Z " fill="#111922" transform="translate(685,465)"/>
<path d="M0 0 C3.89553877 3.10667184 6.65733318 5.89406568 8.18359375 10.7421875 C9.01934778 18.23263296 8.79033213 23.68068964 4.18359375 29.7421875 C0.78142886 33.84342736 -1.38451086 36.02007438 -6.81640625 36.7421875 C-15.13727187 37.38036598 -20.89431203 36.86203517 -27.56640625 31.5546875 C-31.53865322 26.58937879 -33.44019763 21.28455175 -33.171875 14.83203125 C-32.49577979 10.85718576 -31.06662141 7.0897298 -28.81640625 3.7421875 C-27.49113977 3.05962544 -26.15835342 2.39134081 -24.81640625 1.7421875 C-24.48640625 0.7521875 -24.15640625 -0.2378125 -23.81640625 -1.2578125 C-16.17097878 -4.28412754 -7.00104178 -4.84803323 0 0 Z " fill="#111922" transform="translate(859.81640625,352.2578125)"/>
<path d="M0 0 C5.63283197 3.08232038 8.4065811 8.2653152 10.33984375 14.234375 C11.5483496 20.71538865 10.00499871 25.84444123 6.33984375 31.234375 C2.67576588 35.9966203 -0.60118164 38.1897242 -6.66015625 39.234375 C-13.95857601 39.81361466 -19.26479435 38.34704463 -25.47265625 34.484375 C-30.12753783 29.6964968 -30.88211262 25.28956955 -31.16015625 18.796875 C-31.01288578 12.69566985 -29.76144517 8.75916658 -25.66015625 4.234375 C-18.69683815 -2.08119258 -8.93733224 -2.57227183 0 0 Z " fill="#111922" transform="translate(857.66015625,465.765625)"/>
<path d="M0 0 C4.12199817 -0.39499828 6.68082192 -0.24026077 10.22265625 2.03125 C14.46970437 5.70474178 18.21822294 8.96622537 18.953125 14.75 C18.97782485 20.03576836 18.86431019 23.96635864 15.65234375 28.3828125 C10.04459491 33.34800679 5.5565136 35.77898409 -2.00390625 35.65625 C-7.16018047 35.05468467 -10.8622922 32.29501503 -14.28515625 28.5078125 C-17.78732409 23.08472317 -17.45725787 16.52449283 -16.34765625 10.3828125 C-13.91388384 5.60805079 -10.87398453 3.07398002 -6.03515625 0.8828125 C-4.02046492 0.60963401 -2.00662541 0.32720348 0 0 Z " fill="#F9F9F9" transform="translate(1371.34765625,525.6171875)"/>
<path d="M0 0 C5.13239044 2.04447289 9.01405445 5.34192495 12 10 C13.65403553 14.13508883 13.72765568 18.88426203 12.28125 23.08984375 C9.64341867 28.8015995 6.19318919 31.53787387 1 35 C-5.05121941 35.93233603 -10.47882267 35.98824439 -15.5625 32.3125 C-19.09446147 29.14768629 -21.72716938 26.62096301 -22.23828125 21.7109375 C-22.40371139 15.9470032 -22.54000155 9.70525467 -18.37890625 5.2734375 C-12.4220494 0.0472554 -7.95531561 -0.95549675 0 0 Z " fill="#FAFAFA" transform="translate(1377,350)"/>
<path d="M0 0 C5.81655834 2.38399755 10.17448545 6.34897089 13 12 C13.98407474 19.28713574 13.0607775 24.13678822 8.80078125 30.125 C5.77383855 33.27669739 3.23829609 34.82797138 -1.12109375 35.43359375 C-12.43605461 35.44692115 -12.43605461 35.44692115 -17 31 C-21.33448249 26.07977664 -22.0506423 21.36067254 -22 15 C-21.26191604 8.77900662 -18.51872635 6.1899852 -13.875 2.3828125 C-9.55338799 -0.80437635 -5.21123306 -0.6780698 0 0 Z " fill="#F9FAFA" transform="translate(1205,584)"/>
<path d="M0 0 C5.83609975 2.35186109 10.17323406 6.34646811 13 12 C13.85374532 18.45187536 13.09587295 23.54868479 9.609375 29.08203125 C6.35943934 32.95513419 2.68179913 34.60303834 -2.26953125 35.3359375 C-7.44915107 35.56535848 -11.50250451 34.71546897 -16 32 C-19.15636563 29.02519522 -21.60205083 26.053136 -22.44140625 21.72265625 C-22.59835641 15.60160014 -21.70861058 9.9783912 -17.625 5.25 C-16.75875 4.5075 -15.8925 3.765 -15 3 C-14.39414063 2.46890625 -13.78828125 1.9378125 -13.1640625 1.390625 C-9.11738144 -1.20976933 -4.62072062 -0.68384109 0 0 Z " fill="#FBFBFB" transform="translate(1205,467)"/>
<path d="M0 0 C4.1633934 2.31299633 8.44374354 5.09251856 10.01953125 9.80078125 C11.10847985 16.15497584 10.84180961 21.45053052 7.65234375 27.1484375 C4.97671781 30.76503281 1.54805926 32.48398025 -2.625 33.875 C-7.89112474 34.46198843 -12.97170368 34.84258634 -17.5625 31.875 C-21.73708675 28.30251711 -24.21327715 23.99679728 -24.93359375 18.53515625 C-25.05339359 14.2998797 -24.92469775 10.5161881 -22.625 6.875 C-15.70378176 -0.09106415 -9.77559499 -3.03380534 0 0 Z " fill="#FAFAFB" transform="translate(1378.625,468.125)"/>
<path d="M0 0 C4.09705376 3.02021006 7.09448665 5.97429226 7.9375 11.19921875 C8.23346079 17.23866864 7.07647359 21.9302554 3.5625 26.875 C0.24194516 30.19555484 -2.84590301 31.88465555 -7.4375 32.875 C-12.70388208 32.78169796 -18.17120553 32.11365673 -22.0390625 28.29296875 C-26.20266213 23.60645258 -27.71258111 20.47220792 -27.58203125 13.9921875 C-27.16474962 7.87957546 -25.33750412 4.21688885 -21.0703125 0.0390625 C-15.39218827 -4.00897822 -5.77269523 -3.37913867 0 0 Z " fill="#FAFAFA" transform="translate(1210.4375,411.125)"/>
<path d="M0 0 C0.66 0.33 1.32 0.66 2 1 C-1.3 4.3 -4.6 7.6 -8 11 C-8 6.67750434 -5.85084926 5.11604454 -3 2 C-2.01 1.34 -1.02 0.68 0 0 Z " fill="#D1D3D5" transform="translate(1246,582)"/>
<path d="M0 0 C0.66 0.33 1.32 0.66 2 1 C-0.97 3.97 -3.94 6.94 -7 10 C-7 6.04435836 -5.59478606 4.89133304 -3 2 C-2.01 1.34 -1.02 0.68 0 0 Z " fill="#D4D6D8" transform="translate(1304,524)"/>
<path d="M0 0 C0.66 0.33 1.32 0.66 2 1 C-0.97 3.97 -3.94 6.94 -7 10 C-7 7 -7 7 -4.625 4.4375 C-3.75875 3.633125 -2.8925 2.82875 -2 2 C-1.34 1.34 -0.68 0.68 0 0 Z " fill="#CCCED0" transform="translate(1192,468)"/>
<path d="M0 0 C0.66 0.33 1.32 0.66 2 1 C-0.64 3.64 -3.28 6.28 -6 9 C-6 6 -6 6 -3.5625 3.375 C-2.716875 2.59125 -1.87125 1.8075 -1 1 C-0.67 0.67 -0.34 0.34 0 0 Z " fill="#DDDFE0" transform="translate(1245,407)"/>
</svg>
