<?xml version="1.0" encoding="UTF-8"?>
<svg version="1.1" xmlns="http://www.w3.org/2000/svg" width="498" height="501">
<path d="M0 0 C6.7912652 5.79429168 12.9601355 14.4443268 13.91772461 23.46069336 C14.06473013 25.9720165 14.11745419 28.46488583 14.125 30.98046875 C14.12886719 31.86444336 14.13273437 32.74841797 14.13671875 33.65917969 C14.0122428 40.725783 12.54880467 46.28036576 8.6875 52.29296875 C8.0275 52.29296875 7.3675 52.29296875 6.6875 52.29296875 C6.460625 52.84984375 6.23375 53.40671875 6 53.98046875 C2.01133901 61.00810955 -5.77072954 66.48602191 -13.4609375 68.78515625 C-23.25804411 70.52984647 -33.71552364 70.76993791 -42.3125 65.29296875 C-43.07949219 64.84566406 -43.84648437 64.39835937 -44.63671875 63.9375 C-54.24564662 58.01331802 -59.75239436 49.97328566 -63.3125 39.29296875 C-64.3757337 26.18481609 -62.4392151 15.55341737 -53.9140625 5.0390625 C-39.29682025 -10.89729674 -17.66135909 -11.76587701 0 0 Z " fill="#15222B" transform="translate(228.3125,36.70703125)"/>
<path d="M0 0 C9.0495439 5.63287937 14.10653135 12.6445344 17.421875 22.6796875 C17.916875 24.1646875 17.916875 24.1646875 18.421875 25.6796875 C19.19470642 38.90699455 18.05790218 49.06860477 9.421875 59.6796875 C0.83125229 68.37137636 -8.26573967 72.51355337 -20.578125 72.6796875 C-32.43733319 71.51774331 -43.5028152 66.69680297 -51.3671875 57.61328125 C-58.4964135 47.79742575 -59.75083096 36.55168825 -58.578125 24.6796875 C-57.70749822 21.31031269 -56.43753451 18.61071931 -54.578125 15.6796875 C-54.15402344 15.00679687 -53.72992188 14.33390625 -53.29296875 13.640625 C-40.35358166 -5.02957699 -20.2858765 -10.38882766 0 0 Z " fill="#14212A" transform="translate(223.578125,220.3203125)"/>
<path d="M0 0 C1.06166382 0.00845947 1.06166382 0.00845947 2.14477539 0.01708984 C13.76422059 0.28628676 22.42492646 5.13930001 30.4375 13.4375 C39.05967435 23.81859792 40.34954513 34.33632938 39.1875 47.3125 C37.57327252 56.69354332 31.70027567 64.80646664 24.47265625 70.80859375 C16.10633321 76.31463541 6.02137837 78.18199609 -3.8125 77.3125 C-15.30808687 74.92610889 -25.03440185 70.11690497 -31.8125 60.3125 C-37.55756484 50.88907681 -38.81599597 41.22551867 -37.8125 30.3125 C-36.92628358 26.9791178 -35.59258372 24.25542479 -33.8125 21.3125 C-33.36519531 20.54164063 -32.91789063 19.77078125 -32.45703125 18.9765625 C-25.2022829 7.26782656 -14.02402509 -0.1167418 0 0 Z " fill="#14212A" transform="translate(202.8125,121.6875)"/>
<path d="M0 0 C8.31300515 6.82746813 14.0468942 14.96298833 15.43017578 25.87695312 C16.11105701 34.41167599 15.87287116 42.36382146 11.1640625 49.77734375 C10.5659375 50.80859375 9.9678125 51.83984375 9.3515625 52.90234375 C2.41858051 62.01426294 -5.45775437 67.67698856 -16.8359375 69.77734375 C-25.68027464 70.56078023 -33.16928468 70.48853117 -40.8359375 65.77734375 C-41.97289062 65.12378906 -41.97289062 65.12378906 -43.1328125 64.45703125 C-52.37690316 58.78029101 -57.45127141 52.02232767 -60.8359375 41.77734375 C-61.3309375 40.29234375 -61.3309375 40.29234375 -61.8359375 38.77734375 C-62.74205574 26.65615556 -61.39870628 16.3104283 -53.54296875 6.625 C-39.22476421 -8.87273627 -17.7985684 -12.86150968 0 0 Z " fill="#16222C" transform="translate(320.8359375,36.22265625)"/>
<path d="M0 0 C8.1673291 5.15898688 15.89259905 12.606723 18.55859375 22.1640625 C20.34642692 33.6504951 20.14989495 44.80680395 14 55 C11.6875 57.8125 11.6875 57.8125 9 60 C8.43667969 60.56203125 7.87335938 61.1240625 7.29296875 61.703125 C2.12233147 66.71579984 -3.12833374 69.0153262 -10 71 C-10.65226562 71.19335938 -11.30453125 71.38671875 -11.9765625 71.5859375 C-24.46041979 74.14054922 -34.61056386 70.27712992 -44.9453125 63.62109375 C-45.96238281 62.81865234 -45.96238281 62.81865234 -47 62 C-47 61.34 -47 60.68 -47 60 C-47.66 60 -48.32 60 -49 60 C-56.92813329 49.42179431 -59.22250266 39.09039369 -58 26 C-55.59520431 15.11728051 -49.08462907 6.34384267 -40 0 C-27.25451798 -7.53315057 -12.76320036 -7.34907309 0 0 Z " fill="#13202A" transform="translate(317,127)"/>
<path d="M0 0 C3.37530981 2.61626885 5.98451871 5.42583607 8.44921875 8.8984375 C9.00609375 9.6409375 9.56296875 10.3834375 10.13671875 11.1484375 C15.23055631 21.82124001 16.47005021 34.22496157 12.55078125 45.48828125 C8.89906354 53.47803242 3.80398338 59.19825883 -3.55078125 63.8984375 C-4.39640625 64.4759375 -5.24203125 65.0534375 -6.11328125 65.6484375 C-15.51291697 70.46876351 -28.47922149 70.58787628 -38.48828125 67.4609375 C-49.10836259 62.87719419 -57.16981592 53.3214317 -61.42578125 42.7109375 C-64.37442283 32.59374215 -63.22137495 22.23962489 -58.55078125 12.8984375 C-53.55824224 3.98128227 -53.55824224 3.98128227 -48.55078125 1.8984375 C-48.55078125 1.2384375 -48.55078125 0.5784375 -48.55078125 -0.1015625 C-34.22016123 -12.23055095 -14.64809111 -9.9047007 0 0 Z " fill="#132029" transform="translate(321.55078125,223.1015625)"/>
<path d="M0 0 C4.82690829 3.12379703 9.17874552 6.70108871 13 11 C13 11.66 13 12.32 13 13 C13.66 13 14.32 13 15 13 C19.88586487 23.88215358 22.74146319 35.74929175 18.375 47.375 C13.15369544 58.40386086 6.95479417 65.87494214 -4.5703125 70.23828125 C-15.67320621 73.71909198 -27.5657656 73.14824436 -38 68 C-40.8046875 66.48828125 -40.8046875 66.48828125 -43 65 C-43 64.34 -43 63.68 -43 63 C-43.66 63 -44.32 63 -45 63 C-45 62.34 -45 61.68 -45 61 C-45.59554687 60.77699219 -46.19109375 60.55398438 -46.8046875 60.32421875 C-49.67894412 58.59045897 -50.56783858 56.76784563 -52.125 53.8125 C-52.62257812 52.89082031 -53.12015625 51.96914063 -53.6328125 51.01953125 C-58.11827151 41.11307464 -58.90719716 29.94886413 -55.0625 19.6875 C-50.64614837 10.44426264 -43.22947026 2.56843344 -34 -2 C-23.26500847 -5.73727196 -9.94877793 -5.90027888 0 0 Z " fill="#17232C" transform="translate(222,313)"/>
<path d="M0 0 C0.928125 0.70125 1.85625 1.4025 2.8125 2.125 C3.38742187 2.55554688 3.96234375 2.98609375 4.5546875 3.4296875 C11.65715715 9.06898744 16.85280007 17.2046517 18.11572266 26.31152344 C18.2486578 28.570923 18.28063022 30.79948142 18.25 33.0625 C18.24170166 33.85519287 18.23340332 34.64788574 18.22485352 35.46459961 C18.05192278 41.4420951 17.23064146 46.10365944 13.8125 51.125 C13.30332031 51.89070313 12.79414063 52.65640625 12.26953125 53.4453125 C5.69140558 62.56738151 -1.57689277 66.7824016 -12.1875 70.125 C-13.1775 70.455 -14.1675 70.785 -15.1875 71.125 C-26.39366713 72.44464516 -37.16984593 68.81559527 -46.0390625 62.02734375 C-53.5352347 55.389824 -58.4431301 46.34534322 -59.63671875 36.37109375 C-60.02342752 23.15632181 -55.57607288 13.40087467 -46.9375 3.5625 C-45.1875 2.125 -45.1875 2.125 -43.1875 2.125 C-43.1875 1.465 -43.1875 0.805 -43.1875 0.125 C-30.28010737 -9.45145259 -13.14000457 -7.72941445 0 0 Z " fill="#14212A" transform="translate(318.1875,407.875)"/>
<path d="M0 0 C9.5505572 6.72349394 15.7806595 14.58817415 18.03515625 26.13671875 C19.08908552 38.40445543 17.40103837 47.95892463 9.984375 57.87890625 C3.8460654 64.98901235 -4.67892174 69.68010353 -13.96484375 71.13671875 C-26.58626839 71.89470934 -37.18605588 70.01183365 -47.15234375 61.94921875 C-51.23749795 58.20048901 -53.65448913 54.13373576 -55.96484375 49.13671875 C-56.28453125 48.53472656 -56.60421875 47.93273437 -56.93359375 47.3125 C-60.74689368 39.17392932 -60.15969346 28.69134889 -57.40234375 20.32421875 C-53.09844887 10.11957753 -46.73452218 2.30280797 -36.77734375 -2.67578125 C-24.46893709 -7.4615344 -11.37554415 -6.55923189 0 0 Z " fill="#17232C" transform="translate(317.96484375,313.86328125)"/>
<path d="M0 0 C9.90169589 5.65383844 17.0053153 12.86470718 21.12109375 23.58203125 C23.45405156 32.65464496 23.45912983 43.60170954 19 52 C12.68279714 62.65925961 5.29002161 69.5226609 -6.8125 72.75 C-20.24172286 73.80327238 -29.76695987 72.64230764 -41 65 C-42.0725 64.278125 -43.145 63.55625 -44.25 62.8125 C-51.91608236 54.97218849 -54.8360853 45.29135907 -55.3125 34.5625 C-54.92376197 22.92081909 -50.09147065 14.51017485 -42.23828125 6.1171875 C-31.2209648 -4.10400585 -13.5338692 -6.3821925 0 0 Z " fill="#15222B" transform="translate(220,405)"/>
<path d="M0 0 C3.76044406 2.26269455 7.16812668 4.75087335 10.3125 7.8125 C10.3125 8.4725 10.3125 9.1325 10.3125 9.8125 C10.9725 9.8125 11.6325 9.8125 12.3125 9.8125 C17.66309325 18.55904173 19.45663025 27.3760507 17.75 37.5625 C15.57595631 45.4615254 10.14410081 52.37534145 3.3125 56.8125 C-5.10460879 61.24106314 -14.14001718 63.11243798 -23.45703125 60.671875 C-29.83219936 58.21559307 -35.16037129 53.85701485 -39.6875 48.8125 C-40.739375 47.760625 -40.739375 47.760625 -41.8125 46.6875 C-45.87368645 40.46034745 -47.13481324 33.16121749 -46.6875 25.8125 C-45.734375 22.2421875 -45.734375 22.2421875 -44.4375 18.6875 C-44.01984375 17.50929688 -43.6021875 16.33109375 -43.171875 15.1171875 C-41.69374529 11.826404 -40.15814457 9.43138324 -37.6875 6.8125 C-37.0275 6.8125 -36.3675 6.8125 -35.6875 6.8125 C-35.6875 6.1525 -35.6875 5.4925 -35.6875 4.8125 C-33.60546875 3.33984375 -33.60546875 3.33984375 -30.875 1.75 C-29.98167969 1.22277344 -29.08835937 0.69554687 -28.16796875 0.15234375 C-20.38636462 -4.05094793 -7.94574017 -3.87567449 0 0 Z " fill="#16222B" transform="translate(401.6875,38.1875)"/>
<path d="M0 0 C6.96115235 5.70955122 11.34209843 13.49018424 12.75 22.375 C12.96954844 31.88876574 9.96092551 42.06453265 3.75 49.375 C-2.30799134 54.85090677 -8.13410441 57.65180138 -16.25 58.375 C-16.92804688 58.44460937 -17.60609375 58.51421875 -18.3046875 58.5859375 C-26.52460784 59.01508997 -34.10182012 56.2771256 -40.43359375 51.109375 C-47.02259121 44.81794517 -51.55155305 37.45409273 -51.76806641 28.22119141 C-51.76210449 27.50882324 -51.75614258 26.79645508 -51.75 26.0625 C-51.74790527 25.31919434 -51.74581055 24.57588867 -51.74365234 23.81005859 C-51.56200551 17.43855309 -49.86725937 12.65839096 -46.25 7.375 C-45.59 6.385 -44.93 5.395 -44.25 4.375 C-43.59 4.375 -42.93 4.375 -42.25 4.375 C-42.25 3.715 -42.25 3.055 -42.25 2.375 C-29.58512663 -7.00261248 -13.45535557 -9.19151424 0 0 Z " fill="#132029" transform="translate(133.25,134.625)"/>
<path d="M0 0 C0.639375 0.474375 1.27875 0.94875 1.9375 1.4375 C1.9375 2.0975 1.9375 2.7575 1.9375 3.4375 C2.9275 3.7675 3.9175 4.0975 4.9375 4.4375 C4.9375 5.0975 4.9375 5.7575 4.9375 6.4375 C5.5975 6.4375 6.2575 6.4375 6.9375 6.4375 C8.41015625 8.51953125 8.41015625 8.51953125 10 11.25 C10.52722656 12.14332031 11.05445313 13.03664063 11.59765625 13.95703125 C15.48078454 21.14591306 15.2365762 31.67826758 13.1015625 39.5 C9.15893039 47.96739782 2.74088319 54.38056755 -5.97265625 57.76171875 C-14.64582402 60.56631319 -22.81876836 60.15278722 -31.0625 56.4375 C-39.97561159 51.70056487 -45.84742383 45.08272852 -49.0625 35.4375 C-51.13150964 26.07523139 -49.14273767 17.49580803 -44.0625 9.4375 C-39.13505553 2.36825967 -32.99727251 -2.11116155 -24.5546875 -4.17578125 C-15.50513864 -5.58002159 -8.10406039 -4.13472469 0 0 Z " fill="#15212B" transform="translate(405.0625,319.5625)"/>
<path d="M0 0 C6.65320352 5.30366934 11.35711593 12.56984741 13 21 C14.01747681 30.35745071 11.57128784 38.64023188 6.25 46.375 C0.60428567 53.33234494 -7.02166739 56.55359304 -15.75 57.75 C-25.0660101 58.50421971 -32.19454987 55.939681 -40 51 C-40 50.34 -40 49.68 -40 49 C-40.90878906 48.61908203 -40.90878906 48.61908203 -41.8359375 48.23046875 C-46.39601357 45.63764571 -48.44431054 40.40245435 -50.3125 35.6875 C-52.33601849 24.83408263 -50.35594837 16.46330797 -45.3125 6.75 C-34.11173175 -6.56983252 -14.53150753 -11.16692695 0 0 Z " fill="#14212A" transform="translate(406,228)"/>
<path d="M0 0 C7.10782948 5.56818564 10.43468563 12.8358063 12.08984375 21.57421875 C12.91857503 30.44898664 10.83749189 38.77645173 5.3984375 45.87890625 C-1.44853842 53.32695257 -7.2481192 56.84266686 -17.36303711 57.27539062 C-24.78272665 57.41937906 -30.99481259 56.43638697 -37.6015625 52.87890625 C-37.6015625 52.21890625 -37.6015625 51.55890625 -37.6015625 50.87890625 C-38.1584375 50.65203125 -38.7153125 50.42515625 -39.2890625 50.19140625 C-45.06128904 46.91527767 -49.12625571 41.38403773 -51.18359375 35.1015625 C-52.98487301 25.52279711 -52.24531361 16.97855608 -47.375 8.47265625 C-42.90486108 1.93483193 -37.13306548 -3.74957166 -29.22265625 -5.7109375 C-18.46016796 -7.39508246 -9.1726508 -5.85638474 0 0 Z " fill="#131F29" transform="translate(133.6015625,228.12109375)"/>
<path d="M0 0 C6.51770495 5.23852921 10.79394573 12.25953513 12.5 20.46484375 C13.54237824 30.30110385 9.86039846 40.86655156 3.71484375 48.4921875 C-2.57181102 54.9542838 -10.53971296 57.38552704 -19.44140625 57.55078125 C-31.62678285 56.82765915 -38.78016691 52.8024061 -46.89453125 43.68359375 C-51.64099553 37.19210584 -52.53244541 28.77300771 -52.1640625 20.90625 C-50.6282179 11.88118377 -44.1579339 4.21431912 -37.28515625 -1.5078125 C-25.96926837 -8.29734523 -10.86918667 -7.17180522 0 0 Z " fill="#131F29" transform="translate(133.28515625,414.5078125)"/>
<path d="M0 0 C0 0.66 0 1.32 0 2 C-0.99 2 -1.98 2 -3 2 C-3 1.34 -3 0.68 -3 0 C-8.45395572 -1.2177784 -13.74416202 -1.25966947 -19.3125 -1.3125 C-20.31990234 -1.34150391 -21.32730469 -1.37050781 -22.36523438 -1.40039062 C-29.60932862 -1.46174126 -35.16789869 -0.43284254 -40.6730957 4.4987793 C-42.24560584 6.27787126 -42.60095427 7.68553475 -43 10 C-43.99 10 -44.98 10 -46 10 C-44.63657645 4.37587786 -40.48252165 1.28068613 -36 -2 C-24.83604191 -8.31404187 -10.36601334 -7.69091312 0 0 Z " fill="#2C363E" transform="translate(407,321)"/>
<path d="M0 0 C0.66 0 1.32 0 2 0 C-0.80484053 6.88460857 -7.45638757 11.59399426 -13.8515625 14.98046875 C-21.91678487 18.29686328 -32.75562275 18.52768114 -41.09765625 16.09765625 C-43.5625 15 -43.5625 15 -47 13 C-47 12.67 -47 12.34 -47 12 C-44.69 12 -42.38 12 -40 12 C-39.67 12.66 -39.34 13.32 -39 14 C-35.85418577 14.02888514 -32.70840531 14.04675923 -29.5625 14.0625 C-28.66466797 14.07087891 -27.76683594 14.07925781 -26.84179688 14.08789062 C-25.56079102 14.09272461 -25.56079102 14.09272461 -24.25390625 14.09765625 C-23.46314697 14.10289307 -22.6723877 14.10812988 -21.85766602 14.11352539 C-19.98407311 14.20495909 -19.98407311 14.20495909 -19 13 C-17.00041636 12.95919217 -14.99954746 12.95745644 -13 13 C-13 11.68 -13 10.36 -13 9 C-11.68 9 -10.36 9 -9 9 C-8.938125 8.21625 -8.87625 7.4325 -8.8125 6.625 C-8 4 -8 4 -5.625 2.6875 C-3 2 -3 2 0 2 C0 1.34 0 0.68 0 0 Z " fill="#8F9195" transform="translate(233,89)"/>
<path d="M0 0 C3.29331692 3.29331692 3.99176366 7.66911719 4.0078125 12.2109375 C3.10775749 22.47156461 -0.53112938 32.54748657 -8.5625 39.3125 C-17.28107317 45.29936263 -26.86452942 45.49156748 -37 44 C-37 43.67 -37 43.34 -37 43 C-31.39 43 -25.78 43 -20 43 C-20 42.34 -20 41.68 -20 41 C-16.535 40.505 -16.535 40.505 -13 40 C-13 39.34 -13 38.68 -13 38 C-12.360625 37.731875 -11.72125 37.46375 -11.0625 37.1875 C-8.66868314 36.11332248 -8.66868314 36.11332248 -8 33 C-7.01 33 -6.02 33 -5 33 C-5 32.01 -5 31.02 -5 30 C-4.34 30 -3.68 30 -3 30 C-3 28.35 -3 26.7 -3 25 C-2.01 25 -1.02 25 0 25 C0.19436491 22.54203147 0.3807742 20.08390706 0.5625 17.625 C0.61857422 16.92632812 0.67464844 16.22765625 0.73242188 15.5078125 C1.11499904 11.63471135 1.11499904 11.63471135 0 8 C-0.13415472 5.3276379 -0.04318541 2.67749512 0 0 Z " fill="#65686F" transform="translate(142,427)"/>
<path d="M0 0 C5.02750244 4.12973415 6.99557006 9.98671017 9 16 C9.87117252 28.13418861 9.79412937 39.191898 1.5 48.9375 C0.2625 49.9584375 0.2625 49.9584375 -1 51 C-1.886875 51.928125 -2.77375 52.85625 -3.6875 53.8125 C-6 56 -6 56 -8 56 C-8 55.34 -8 54.68 -8 54 C-7.34 54 -6.68 54 -6 54 C-6 53.01 -6 52.02 -6 51 C-5.01 51 -4.02 51 -3 51 C-3 50.34 -3 49.68 -3 49 C-2.01 49 -1.02 49 0 49 C0.28875 48.05125 0.5775 47.1025 0.875 46.125 C2 43 2 43 4 41 C6.41698128 35.61479611 6.26623886 30.46858964 6.1875 24.6875 C6.18685547 23.76904297 6.18621094 22.85058594 6.18554688 21.90429688 C6.54473364 17.62146869 6.54473364 17.62146869 5 14 C4.95919217 12.00041636 4.95745644 9.99954746 5 8 C4.01 7.67 3.02 7.34 2 7 C2 6.01 2 5.02 2 4 C1.34 4 0.68 4 0 4 C0 2.68 0 1.36 0 0 Z " fill="#83858B" transform="translate(327,136)"/>
<path d="M0 0 C5.10252039 4.66390832 6.93270977 10.55277511 7.39453125 17.34375 C7.84871512 29.8311963 5.46943253 37.24507217 -2.21875 47.15234375 C-4.04083849 49.04236098 -5.59476167 49.99254272 -8 51 C-8 50.01 -8 49.02 -8 48 C-7.40574219 47.74605469 -6.81148438 47.49210937 -6.19921875 47.23046875 C-2.00268058 44.88249447 1.26162964 40.53904129 2.60546875 35.91796875 C2.93120299 33.82695818 2.93120299 33.82695818 3 31 C3.66 31 4.32 31 5 31 C5 24.73 5 18.46 5 12 C4.01 12 3.02 12 2 12 C2 10.02 2 8.04 2 6 C1.34 6 0.68 6 0 6 C0 4.02 0 2.04 0 0 Z " fill="#868B8F" transform="translate(329,419)"/>
<path d="M0 0 C1.671875 1.37109375 1.671875 1.37109375 3.984375 3.62109375 C0.56500477 3.62109375 0.17102318 3.1625494 -2.421875 1.171875 C-7.83835789 -2.34363072 -13.22031052 -2.15751999 -19.515625 -2.19140625 C-20.62421875 -2.21654297 -21.7328125 -2.24167969 -22.875 -2.26757812 C-25.58889925 -2.32606733 -28.30119971 -2.36262736 -31.015625 -2.37890625 C-31.015625 -1.38890625 -31.015625 -0.39890625 -31.015625 0.62109375 C-32.665625 0.62109375 -34.315625 0.62109375 -36.015625 0.62109375 C-36.015625 1.28109375 -36.015625 1.94109375 -36.015625 2.62109375 C-37.995625 3.28109375 -39.975625 3.94109375 -42.015625 4.62109375 C-32.2623014 -8.2877169 -13.1030639 -8.96391774 0 0 Z " fill="#61696E" transform="translate(133.015625,414.37890625)"/>
<path d="M0 0 C1.26339822 3.79019466 0.49719015 5.37522384 -1 9 C-1.99 9.495 -1.99 9.495 -3 10 C-3.65772428 13.02934491 -3.65772428 13.02934491 -4 16 C-4.66 16 -5.32 16 -6 16 C-6 20.95 -6 25.9 -6 31 C-5.34 31 -4.68 31 -4 31 C-3.67 33.97 -3.34 36.94 -3 40 C-2.34 40 -1.68 40 -1 40 C-1 41.65 -1 43.3 -1 45 C-0.34 45 0.32 45 1 45 C2.6875 47.375 2.6875 47.375 4 50 C3.67 50.66 3.34 51.32 3 52 C-5.90000646 40.65177169 -9.3675474 30.54269918 -8 16 C-7.06334184 12.71686832 -5.71917862 9.93886615 -4 7 C-3.42765625 5.95972656 -3.42765625 5.95972656 -2.84375 4.8984375 C-1.92405852 3.24956205 -0.96629883 1.62200161 0 0 Z " fill="#797D80" transform="translate(173,136)"/>
<path d="M0 0 C7.97910969 3.86865924 12.34906649 10.70154501 15.2734375 18.80078125 C15.51320312 19.52652344 15.75296875 20.25226563 16 21 C16.33 21.99 16.66 22.98 17 24 C17.57193621 33.78890814 17.89544057 43.08470136 12.3125 51.5625 C11.879375 52.036875 11.44625 52.51125 11 53 C11.54854849 50.07440808 12.20751515 47.24775759 13 44.375 C14.12044777 39.92175534 14.43468658 35.5754519 14.625 31 C14.68300781 29.83791016 14.68300781 29.83791016 14.7421875 28.65234375 C14.83521357 26.76856585 14.91863175 24.88431744 15 23 C14.34 23 13.68 23 13 23 C12.87625 21.88625 12.7525 20.7725 12.625 19.625 C12.3534187 15.96896323 12.3534187 15.96896323 10 14 C10 13.01 10 12.02 10 11 C9.34 11 8.68 11 8 11 C7.525625 10.195625 7.05125 9.39125 6.5625 8.5625 C5.20016328 5.7081924 5.20016328 5.7081924 2 5 C2 4.34 2 3.68 2 3 C1.34 3 0.68 3 0 3 C0 2.01 0 1.02 0 0 Z " fill="#626769" transform="translate(225,222)"/>
<path d="M0 0 C2.37890625 1.63671875 2.37890625 1.63671875 4 3 C2.62410383 2.71259058 1.24932678 2.41982258 -0.125 2.125 C-0.89070313 1.96257812 -1.65640625 1.80015625 -2.4453125 1.6328125 C-5 1 -5 1 -7.875 -0.0625 C-11.36602634 -1.1098079 -14.23977896 -1.19918818 -17.875 -1.125 C-19.02742188 -1.10695312 -20.17984375 -1.08890625 -21.3671875 -1.0703125 C-22.23601562 -1.04710937 -23.10484375 -1.02390625 -24 -1 C-24.33 -0.34 -24.66 0.32 -25 1 C-27.64 1 -30.28 1 -33 1 C-33 1.66 -33 2.32 -33 3 C-34.32 3 -35.64 3 -37 3 C-37 3.99 -37 4.98 -37 6 C-40 8 -40 8 -42.1875 7.625 C-42.785625 7.41875 -43.38375 7.2125 -44 7 C-30.40406341 -4.95099611 -16.7354403 -6.86405576 0 0 Z " fill="#797E85" transform="translate(221,219)"/>
<path d="M0 0 C2.32506163 1.18257445 4.50844072 2.40520415 6.65625 3.8828125 C3.45562313 5.48312594 0.93353194 3.91454941 -2.34375 2.8828125 C-2.34375 2.2228125 -2.34375 1.5628125 -2.34375 0.8828125 C-5.53253605 0.93516907 -8.71871166 1.03034796 -11.90625 1.1328125 C-12.80150391 1.14699219 -13.69675781 1.16117188 -14.61914062 1.17578125 C-20.6547765 1.39686681 -24.40017231 2.35263353 -29.34375 5.8828125 C-29.67375 6.5428125 -30.00375 7.2028125 -30.34375 7.8828125 C-31.00375 7.8828125 -31.66375 7.8828125 -32.34375 7.8828125 C-32.611875 8.8521875 -32.88 9.8215625 -33.15625 10.8203125 C-33.548125 11.8309375 -33.94 12.8415625 -34.34375 13.8828125 C-35.33375 14.2128125 -36.32375 14.5428125 -37.34375 14.8828125 C-39.01085346 16.38266859 -39.01085346 16.38266859 -40.34375 17.8828125 C-39.19944823 14.00979112 -38.11054902 10.88017811 -35.34375 7.8828125 C-34.68375 7.8828125 -34.02375 7.8828125 -33.34375 7.8828125 C-33.34375 7.2228125 -33.34375 6.5628125 -33.34375 5.8828125 C-31.26171875 4.41015625 -31.26171875 4.41015625 -28.53125 2.8203125 C-27.63792969 2.29308594 -26.74460937 1.76585937 -25.82421875 1.22265625 C-18.61065455 -2.67380441 -7.73633329 -2.58480294 0 0 Z " fill="#84888B" transform="translate(399.34375,37.1171875)"/>
<path d="M0 0 C0.33 0 0.66 0 1 0 C1 2.64 1 5.28 1 8 C0.34 8 -0.32 8 -1 8 C-0.62439595 16.49642269 0.17420549 23.34841099 4 31 C4.99 31 5.98 31 7 31 C7.66 33.31 8.32 35.62 9 38 C9.763125 37.938125 10.52625 37.87625 11.3125 37.8125 C14 38 14 38 15.8125 39.375 C17 41 17 41 17 43 C13.59687262 41.94124926 10.98646769 40.99097846 8 39 C8 38.34 8 37.68 8 37 C7.09121094 36.61908203 7.09121094 36.61908203 6.1640625 36.23046875 C1.60398643 33.63764571 -0.44431054 28.40245435 -2.3125 23.6875 C-3.89582797 15.19510451 -3.30983284 7.97906132 0 0 Z " fill="#646A6F" transform="translate(358,240)"/>
<path d="M0 0 C2.57039343 1.5553336 4.43160758 3.27393072 6.453125 5.484375 C3.483125 4.494375 0.513125 3.504375 -2.546875 2.484375 C-2.546875 1.824375 -2.546875 1.164375 -2.546875 0.484375 C-4.2484375 0.5153125 -4.2484375 0.5153125 -5.984375 0.546875 C-9.546875 0.484375 -9.546875 0.484375 -10.546875 -0.515625 C-20.79808086 -1.33197429 -30.44451513 -1.05352637 -39 5.30859375 C-40.9288122 6.97101405 -42.76493545 8.66669455 -44.546875 10.484375 C-45.206875 10.154375 -45.866875 9.824375 -46.546875 9.484375 C-33.43905374 -3.85515017 -17.2682997 -7.81414679 0 0 Z " fill="#7F8589" transform="translate(314.546875,125.515625)"/>
<path d="M0 0 C0.33 0.66 0.66 1.32 1 2 C0.22265625 3.7265625 0.22265625 3.7265625 -0.9375 5.625 C-1.618125 6.73875 -2.29875 7.8525 -3 9 C-3.66 9 -4.32 9 -5 9 C-5 10.65 -5 12.3 -5 14 C-5.99 14.33 -6.98 14.66 -8 15 C-8.66 21.93 -9.32 28.86 -10 36 C-9.34 36 -8.68 36 -8 36 C-8 38.97 -8 41.94 -8 45 C-12.27343561 40.72656439 -12.19827335 35.0062393 -12.375 29.25 C-12.18528163 18.06847331 -7.96412699 7.96412699 0 0 Z " fill="#61686C" transform="translate(271,225)"/>
<path d="M0 0 C0.66 0.99 1.32 1.98 2 3 C2.33 2.34 2.66 1.68 3 1 C3.99 1.33 4.98 1.66 6 2 C1.00775497 8.25168679 -3.78067957 13.51828577 -12 15 C-14.70009367 15.1198184 -17.36297312 15.18507018 -20.0625 15.1875 C-20.78244141 15.19974609 -21.50238281 15.21199219 -22.24414062 15.22460938 C-26.0426247 15.23519011 -27.76366518 15.15755655 -31 13 C-30.35450195 12.97494385 -29.70900391 12.9498877 -29.04394531 12.92407227 C-26.11244106 12.80785567 -23.18123783 12.68524558 -20.25 12.5625 C-19.23421875 12.52318359 -18.2184375 12.48386719 -17.171875 12.44335938 C-16.1921875 12.40146484 -15.2125 12.35957031 -14.203125 12.31640625 C-13.30239258 12.27974854 -12.40166016 12.24309082 -11.47363281 12.20532227 C-9.20403661 12.01693593 -7.18437113 11.62633499 -5 11 C-5 9.02 -5 7.04 -5 5 C-4.01 5 -3.02 5 -2 5 C-2 4.34 -2 3.68 -2 3 C-1.34 3 -0.68 3 0 3 C0 2.01 0 1.02 0 0 Z " fill="#555B61" transform="translate(134,270)"/>
<path d="M0 0 C8.11929681 3.93662876 12.96803997 11.37160409 16.12109375 19.58203125 C18.57209307 29.11369526 17.87494304 38.95846623 14 48 C12.91618137 44.74854412 13.12546938 44.12850954 14 41 C14.14033578 39.560265 14.24416857 38.11662851 14.31640625 36.671875 C14.35830078 35.87265625 14.40019531 35.0734375 14.44335938 34.25 C14.48267578 33.425 14.52199219 32.6 14.5625 31.75 C14.60568359 30.90953125 14.64886719 30.0690625 14.69335938 29.203125 C14.79908543 27.13559329 14.90001295 25.06781719 15 23 C14.34 23 13.68 23 13 23 C13 20.69 13 18.38 13 16 C12.01 16.33 11.02 16.66 10 17 C10 15.02 10 13.04 10 11 C9.34 11 8.68 11 8 11 C7.566875 10.2575 7.13375 9.515 6.6875 8.75 C4.83393179 5.72937032 2.76386905 4.16627574 0 2 C0 1.34 0 0.68 0 0 Z " fill="#62666A" transform="translate(225,409)"/>
<path d="M0 0 C1.76953125 1.60546875 1.76953125 1.60546875 3 3 C0.83125748 2.49396008 -0.99967627 2.00016187 -3 1 C-9.21783523 -0.08544106 -15.70391804 -0.42473569 -22 0 C-22.33 0.33 -22.66 0.66 -23 1 C-24.33237982 1.08029968 -25.66608886 1.13886782 -27 1.1875 C-33.98017007 1.86767632 -39.2698197 6.03182321 -44 11 C-44.66 10.67 -45.32 10.34 -46 10 C-44.60886005 8.72403068 -43.21185587 7.45445352 -41.8125 6.1875 C-41.03519531 5.47980469 -40.25789063 4.77210937 -39.45703125 4.04296875 C-28.86424141 -4.76470866 -12.4143311 -5.92668459 0 0 Z " fill="#777D80" transform="translate(314,32)"/>
<path d="M0 0 C3.37750065 3.37750065 3.99292195 7.79518688 4.0078125 12.43359375 C3.31700046 21.28980413 0.79449856 30.07486757 -5 37 C-6.485 37.495 -6.485 37.495 -8 38 C-7.67 37.01 -7.34 36.02 -7 35 C-6.34 35 -5.68 35 -5 35 C-4.8453125 34.1646875 -4.8453125 34.1646875 -4.6875 33.3125 C-4 31 -4 31 -2.5 28.8359375 C-0.64482973 25.3285062 -0.44057568 22.1942489 -0.3125 18.3125 C-0.27906494 17.60931641 -0.24562988 16.90613281 -0.21118164 16.18164062 C0.02668007 10.78928469 0.11675874 5.39684829 0 0 Z " fill="#5D6368" transform="translate(142,147)"/>
<path d="M0 0 C0.495 0.45375 0.99 0.9075 1.5 1.375 C0.79335205 1.21652588 0.0867041 1.05805176 -0.64135742 0.89477539 C-3.54175234 0.36740834 -6.2938127 0.1688145 -9.23828125 0.05859375 C-10.30498047 0.01669922 -11.37167969 -0.02519531 -12.47070312 -0.06835938 C-13.57349609 -0.10767578 -14.67628906 -0.14699219 -15.8125 -0.1875 C-17.49569336 -0.25227539 -17.49569336 -0.25227539 -19.21289062 -0.31835938 C-21.97514569 -0.42414787 -24.7374863 -0.52623672 -27.5 -0.625 C-27.5 0.035 -27.5 0.695 -27.5 1.375 C-28.82 1.705 -30.14 2.035 -31.5 2.375 C-31.5 3.035 -31.5 3.695 -31.5 4.375 C-32.49 4.375 -33.48 4.375 -34.5 4.375 C-34.5 5.035 -34.5 5.695 -34.5 6.375 C-35.49 6.045 -36.48 5.715 -37.5 5.375 C-27.16442736 -3.51839971 -12.5987044 -8.18915786 0 0 Z " fill="#787C81" transform="translate(128.5,225.625)"/>
<path d="M0 0 C0.33 0 0.66 0 1 0 C1.02689216 1.47906892 1.04634621 2.95827483 1.0625 4.4375 C1.07410156 5.26121094 1.08570313 6.08492188 1.09765625 6.93359375 C1 9 1 9 0 10 C-0.89693426 23.67824744 1.74482959 31.54199624 9 43 C5.04801041 41.52014243 3.810318 39.48555118 1.875 35.8125 C1.37742188 34.89082031 0.87984375 33.96914063 0.3671875 33.01953125 C-3.55011537 24.36788805 -4.60722513 14.54038435 -2.32421875 5.25 C-1.5 3.0625 -1.5 3.0625 0 0 Z " fill="#787C80" transform="translate(168,331)"/>
<path d="M0 0 C1.051875 0.00193359 1.051875 0.00193359 2.125 0.00390625 C7.72016523 0.1073289 12.07683176 1.12221361 17.1875 3.3125 C13.32150979 4.79941931 10.98957051 3.61754775 7.1875 2.3125 C0.00162566 1.63358917 -6.50431574 1.58493658 -12.8125 5.3125 C-13.1425 5.9725 -13.4725 6.6325 -13.8125 7.3125 C-15.1325 7.3125 -16.4525 7.3125 -17.8125 7.3125 C-18.1425 8.3025 -18.4725 9.2925 -18.8125 10.3125 C-21.625 11.375 -21.625 11.375 -24.8125 12.3125 C-26.15971283 12.95065344 -27.49997118 13.60575371 -28.8125 14.3125 C-21.98359443 4.75203221 -11.66416693 -0.08886984 0 0 Z " fill="#959C9F" transform="translate(202.8125,121.6875)"/>
<path d="M0 0 C-4.13573413 4.81123738 -10.82871767 6.56053848 -16.97900391 7.20849609 C-28.69094236 7.87270509 -28.69094236 7.87270509 -33 5 C-26.73 5 -20.46 5 -14 5 C-14 4.01 -14 3.02 -14 2 C-11.36 2 -8.72 2 -6 2 C-6 1.34 -6 0.68 -6 0 C-6.99 -0.33 -7.98 -0.66 -9 -1 C-5.23375329 -2.25541557 -3.62811066 -1.37061958 0 0 Z " fill="#5F646A" transform="translate(319,99)"/>
<path d="M0 0 C4.78069581 3.89189039 5.28008422 10.18970625 6 16 C5.70038616 22.51468043 4.41146228 28.41760717 1 34 C0.4375 32.0625 0.4375 32.0625 0 30 C0.33 29.67 0.66 29.34 1 29 C1.09957162 27.27835029 1.1308039 25.5526505 1.1328125 23.828125 C1.13410156 22.77109375 1.13539063 21.7140625 1.13671875 20.625 C1.13091797 18.954375 1.13091797 18.954375 1.125 17.25 C1.12886719 16.15171875 1.13273438 15.0534375 1.13671875 13.921875 C1.13478516 12.32859375 1.13478516 12.32859375 1.1328125 10.703125 C1.13168457 9.73020508 1.13055664 8.75728516 1.12939453 7.75488281 C1.00333815 5.07107116 0.59983478 2.61496991 0 0 Z " fill="#596065" transform="translate(140,237)"/>
<path d="M0 0 C0.33 1.32 0.66 2.64 1 4 C0.34 4 -0.32 4 -1 4 C-1 6.97 -1 9.94 -1 13 C-1.99 13.495 -1.99 13.495 -3 14 C-3 17.96 -3 21.92 -3 26 C-2.34 26.33 -1.68 26.66 -1 27 C-1 29.64 -1 32.28 -1 35 C-0.34 35 0.32 35 1 35 C2.23921302 37.97411124 3.30058404 40.85262818 4 44 C-2.07109609 38.56455286 -4.49906698 31.16587885 -5.45703125 23.19921875 C-5.67969783 15.12549364 -4.58053393 8.2761051 -1 1 C-0.67 0.67 -0.34 0.34 0 0 Z " fill="#696D72" transform="translate(264,141)"/>
<path d="M0 0 C1.35100919 0.97598767 2.68967428 1.97003676 4 3 C0.86788674 2.5106073 -1.64533211 1.73064399 -4.59375 0.5 C-9.2225693 -1.26177016 -13.58541794 -1.54742641 -18.5 -1.6875 C-19.32242187 -1.72166016 -20.14484375 -1.75582031 -20.9921875 -1.79101562 C-22.9943455 -1.8724988 -24.99714568 -1.93794575 -27 -2 C-27 -1.34 -27 -0.68 -27 0 C-28.03125 0.103125 -29.0625 0.20625 -30.125 0.3125 C-33.95083945 0.99127797 -36.63370025 2.11158795 -40 4 C-40 3.34 -40 2.68 -40 2 C-28.92011504 -6.22055981 -11.83613613 -6.85853625 0 0 Z " fill="#818389" transform="translate(315,406)"/>
<path d="M0 0 C0.33 0.66 0.66 1.32 1 2 C0.01 3.485 0.01 3.485 -1 5 C-3.19427736 10.16391774 -3.33417745 14.8602555 -3.3125 20.375 C-3.32861328 21.18710938 -3.34472656 21.99921875 -3.36132812 22.8359375 C-3.36684118 29.71622957 -1.86607057 34.93431264 1.75 40.875 C2.36875 41.926875 2.36875 41.926875 3 43 C2.67 43.66 2.34 44.32 2 45 C-5.2820312 36.14347557 -6.58197274 26.84195968 -6.36328125 15.5390625 C-5.73238515 9.39291336 -3.36869695 5.05304543 0 0 Z " fill="#666A6E" transform="translate(171,233)"/>
<path d="M0 0 C1.57421875 1.25390625 1.57421875 1.25390625 2.57421875 3.25390625 C1.25421875 3.25390625 -0.06578125 3.25390625 -1.42578125 3.25390625 C-1.75578125 2.59390625 -2.08578125 1.93390625 -2.42578125 1.25390625 C-5.48275722 -0.68802696 -7.86964659 -0.99350802 -11.453125 -0.9765625 C-12.41025391 -0.97462891 -13.36738281 -0.97269531 -14.35351562 -0.97070312 C-15.34673828 -0.95845703 -16.33996094 -0.94621094 -17.36328125 -0.93359375 C-18.35263672 -0.93294922 -19.34199219 -0.93230469 -20.36132812 -0.93164062 C-24.8722538 -0.90433845 -29.00960589 -0.73885433 -33.42578125 0.25390625 C-32.42578125 -1.74609375 -32.42578125 -1.74609375 -30.23828125 -2.80859375 C-20.18893651 -6.15837533 -9.0543824 -5.60668781 0 0 Z " fill="#828489" transform="translate(404.42578125,226.74609375)"/>
<path d="M0 0 C4.55089697 3.76625957 6.53692368 8.59750339 7.31958008 14.34814453 C7.47336972 16.84452047 7.51721519 19.31151552 7.5 21.8125 C7.49935547 22.68745117 7.49871094 23.56240234 7.49804688 24.46386719 C7.33694867 31.47163896 5.82695384 37.04088616 2 43 C1.34 43 0.68 43 0 43 C0.33 41.35 0.66 39.7 1 38 C1.66 38 2.32 38 3 38 C3.144375 37.05125 3.28875 36.1025 3.4375 35.125 C4 32 4 32 5 30 C5.15176841 27.42285563 5.23140137 24.89073522 5.25 22.3125 C5.270625 21.61705078 5.29125 20.92160156 5.3125 20.20507812 C5.35074069 15.08560554 4.40113911 11.54001787 2 7 C1.34 6.67 0.68 6.34 0 6 C0 4.02 0 2.04 0 0 Z " fill="#88898D" transform="translate(235,46)"/>
<path d="M0 0 C0.495 0.99 0.495 0.99 1 2 C-0.47968324 1.85950482 -1.95874516 1.71245174 -3.4375 1.5625 C-4.26121094 1.48128906 -5.08492188 1.40007812 -5.93359375 1.31640625 C-8 1 -8 1 -9 0 C-20.54108254 -0.7567923 -28.41720086 0.38330536 -38 7 C-38.66 7 -39.32 7 -40 7 C-40 6.34 -40 5.68 -40 5 C-28.82469886 -4.45842527 -13.2098787 -5.31319844 0 0 Z " fill="#888C8F" transform="translate(313,218)"/>
<path d="M0 0 C2.00720923 0.28674418 4.0085944 0.61866701 6 1 C1.58001032 6.33763459 -6.59692788 7.61443025 -13.171875 8.359375 C-19.89939223 8.53366301 -25.708323 7.33849942 -32 5 C-32 4.67 -32 4.34 -32 4 C-30.00045254 3.95745644 -27.99958364 3.95919217 -26 4 C-25.67 4.33 -25.34 4.66 -25 5 C-23.66956375 5.0983721 -22.33406656 5.13078592 -21 5.1328125 C-20.195625 5.13410156 -19.39125 5.13539063 -18.5625 5.13671875 C-17.2940625 5.13091797 -17.2940625 5.13091797 -16 5.125 C-15.154375 5.12886719 -14.30875 5.13273438 -13.4375 5.13671875 C-12.633125 5.13542969 -11.82875 5.13414062 -11 5.1328125 C-9.88625 5.13112061 -9.88625 5.13112061 -8.75 5.12939453 C-6.97174189 5.18942216 -6.97174189 5.18942216 -6 4 C-4.00041636 3.95919217 -1.99954746 3.95745644 0 4 C-0.33 3.01 -0.66 2.02 -1 1 C-0.67 0.67 -0.34 0.34 0 0 Z " fill="#595E61" transform="translate(313,191)"/>
<path d="M0 0 C0.99 0.495 0.99 0.495 2 1 C2 1.66 2 2.32 2 3 C2.66 3 3.32 3 4 3 C8.93963602 14.00191659 11.45088291 25.6223004 7.5 37.4375 C7.005 38.613125 6.51 39.78875 6 41 C5.67 41 5.34 41 5 41 C4.74830718 35.46275805 4.74830718 35.46275805 5.9921875 33.17578125 C7.30913607 30.33260158 7.26547312 28.0592018 7.25 24.9375 C7.25515625 23.89464844 7.2603125 22.85179687 7.265625 21.77734375 C7.20072577 18.78871015 7.20072577 18.78871015 5 16 C4.65625 13.9921875 4.65625 13.9921875 4.5 11.875 C4.335 10.59625 4.17 9.3175 4 8 C3.34 7.67 2.68 7.34 2 7 C2 6.01 2 5.02 2 4 C1.34 4 0.68 4 0 4 C0 2.68 0 1.36 0 0 Z " fill="#6F7277" transform="translate(233,323)"/>
<path d="M0 0 C5.78598851 5.1431009 9.50083802 11.4420233 10.203125 19.26171875 C10.32172695 25.39936971 9.30583898 30.31775395 7 36 C5.875 32.25 5.875 32.25 7 30 C7.2322646 27.28737884 7.41936235 24.59226874 7.5625 21.875 C7.62727539 20.74384766 7.62727539 20.74384766 7.69335938 19.58984375 C7.7994832 17.72678112 7.90025001 15.86341476 8 14 C7.34 14 6.68 14 6 14 C5.67 11.69 5.34 9.38 5 7 C4.34 7 3.68 7 3 7 C1.375 5.75 1.375 5.75 0 4 C0 2.68 0 1.36 0 0 Z " fill="#71757A" transform="translate(409,232)"/>
<path d="M0 0 C0.66 0 1.32 0 2 0 C1.67 1.32 1.34 2.64 1 4 C0.67 2.68 0.34 1.36 0 0 Z M-3 4 C-2.01 4 -1.02 4 0 4 C0.1875 6.875 0.1875 6.875 0 10 C-0.99 10.66 -1.98 11.32 -3 12 C-3 9.36 -3 6.72 -3 4 Z M-5 12 C-4.34 12 -3.68 12 -3 12 C-3 15.96 -3 19.92 -3 24 C-3.99 24.33 -4.98 24.66 -6 25 C-6.02686553 23.02090602 -6.04633375 21.04171029 -6.0625 19.0625 C-6.07410156 17.96035156 -6.08570313 16.85820312 -6.09765625 15.72265625 C-6 13 -6 13 -5 12 Z " fill="#0C141B" transform="translate(266,142)"/>
<path d="M0 0 C0 0.66 0 1.32 0 2 C-0.99 2 -1.98 2 -3 2 C-3 1.34 -3 0.68 -3 0 C-5.475 -0.495 -5.475 -0.495 -8 -1 C-8 -1.66 -8 -2.32 -8 -3 C-15.92 -3 -23.84 -3 -32 -3 C-22.65946073 -9.22702618 -8.64092677 -6.41101018 0 0 Z " fill="#898E93" transform="translate(407,321)"/>
<path d="M0 0 C0 0.33 0 0.66 0 1 C-1.99954746 1.04254356 -4.00041636 1.04080783 -6 1 C-6.33 0.67 -6.66 0.34 -7 0 C-8.41327947 -0.15620555 -9.8335459 -0.25056173 -11.25390625 -0.31640625 C-12.10791016 -0.35830078 -12.96191406 -0.40019531 -13.84179688 -0.44335938 C-14.73962891 -0.48267578 -15.63746094 -0.52199219 -16.5625 -0.5625 C-17.46419922 -0.60568359 -18.36589844 -0.64886719 -19.29492188 -0.69335938 C-21.52978485 -0.79978142 -23.76476308 -0.90179988 -26 -1 C-26 -0.34 -26 0.32 -26 1 C-27.0725 1.144375 -28.145 1.28875 -29.25 1.4375 C-31.91662949 1.83749442 -34.41399729 2.27591924 -37 3 C-28.20284979 -6.69315625 -10.96050957 -4.33262496 0 0 Z " fill="#84878B" transform="translate(220,405)"/>
<path d="M0 0 C3.63434084 5.45151126 2.79792921 13.59411055 2 20 C0.82107724 23.71207279 -0.63131685 26.89917842 -3 30 C-3.66 30.33 -4.32 30.66 -5 31 C-4.34 28.03 -3.68 25.06 -3 22 C-2.01 22 -1.02 22 0 22 C0 14.74 0 7.48 0 0 Z " fill="#60656C" transform="translate(417,336)"/>
<path d="M0 0 C0 0.66 0 1.32 0 2 C-2.64 2 -5.28 2 -8 2 C-8 2.99 -8 3.98 -8 5 C-12.95 5 -17.9 5 -23 5 C-23.33 4.01 -23.66 3.02 -24 2 C-22.44539063 1.90912109 -22.44539063 1.90912109 -20.859375 1.81640625 C-19.48957127 1.73196629 -18.11978025 1.64732003 -16.75 1.5625 C-16.06808594 1.52318359 -15.38617188 1.48386719 -14.68359375 1.44335938 C-9.67470356 1.12726436 -5.01072191 -0.13918672 0 0 Z " fill="#080F17" transform="translate(313,99)"/>
<path d="M0 0 C0.8097618 2.80591878 1.06260681 5.15240674 0.9375 8.0625 C0.88265314 14.69896948 1.33658276 21.37072759 4.9375 27.0625 C7.04555944 29.14982292 7.04555944 29.14982292 10 31 C9.505 32.485 9.505 32.485 9 34 C1.61669217 26.81624103 -1.44797777 20.62426673 -2.3125 10.25 C-1.95989696 6.58292843 -1.14173063 3.49655004 0 0 Z " fill="#8A8E95" transform="translate(357,57)"/>
<path d="M0 0 C1.65 0 3.3 0 5 0 C0.43681662 4.3647841 -6.0323963 5.07220028 -12.125 5.25 C-16.13194672 4.99148731 -19.21508664 4.26163779 -23 3 C-23 2.67 -23 2.34 -23 2 C-15.41 2 -7.82 2 0 2 C0 1.34 0 0.68 0 0 Z " fill="#54585E" transform="translate(399,374)"/>
<path d="M0 0 C0.66 0 1.32 0 2 0 C-0.08097923 5.10785812 -4.33993029 9.14382824 -9 12 C-10.32 12 -11.64 12 -13 12 C-13 11.01 -13 10.02 -13 9 C-11.68 9 -10.36 9 -9 9 C-8.938125 8.21625 -8.87625 7.4325 -8.8125 6.625 C-8 4 -8 4 -5.625 2.6875 C-3 2 -3 2 0 2 C0 1.34 0 0.68 0 0 Z " fill="#4A5256" transform="translate(233,89)"/>
<path d="M0 0 C1.65 0 3.3 0 5 0 C-1.22211999 5.65647272 -8.79496153 6.91440347 -17 7 C-22.52344265 6.34109152 -27.78204448 4.92240466 -33 3 C-33 2.67 -33 2.34 -33 2 C-30.36 2 -27.72 2 -25 2 C-25 2.66 -25 3.32 -25 4 C-22.31222198 4.0544207 -19.62556788 4.09387266 -16.9375 4.125 C-16.18533203 4.14175781 -15.43316406 4.15851563 -14.65820312 4.17578125 C-9.71809978 4.21855271 -5.6486505 3.72888692 -1 2 C-0.67 1.34 -0.34 0.68 0 0 Z " fill="#818588" transform="translate(220,286)"/>
<path d="M0 0 C0.33 1.32 0.66 2.64 1 4 C0.34 4 -0.32 4 -1 4 C-1 10.6 -1 17.2 -1 24 C-0.34 24 0.32 24 1 24 C1 25.98 1 27.96 1 30 C-2.94593285 25.02469337 -3.20788477 20.88370276 -3.25 14.6875 C-3.270625 13.94048828 -3.29125 13.19347656 -3.3125 12.42382812 C-3.34695061 7.51892243 -2.60102928 4.30538795 0 0 Z " fill="#6C7075" transform="translate(85,146)"/>
<path d="M0 0 C2.99408684 0.56139128 5.8734236 1.24341314 8.8125 2.0625 C16.0184018 3.86059557 21.92846956 2.97075439 29 1 C30.66394675 0.65334443 32.32943851 0.31323028 34 0 C28.19791393 4.8946508 20.22402113 6.43499676 12.75 5.9375 C7.91749548 5.24937638 4.21136837 3.4176374 0 1 C0 0.67 0 0.34 0 0 Z " fill="#808488" transform="translate(371,94)"/>
<path d="M0 0 C0.33 0 0.66 0 1 0 C1.04241723 2.33294775 1.04092937 4.66702567 1 7 C0.67 7.33 0.34 7.66 0 8 C-0.10090623 10.905506 -0.13865074 13.78216783 -0.125 16.6875 C-0.12886719 17.49123047 -0.13273438 18.29496094 -0.13671875 19.12304688 C-0.1295153 23.52795572 0.11735442 27.66382846 1 32 C-2.50139266 26.74791101 -3.35937667 22.45139463 -3.3125 16.1875 C-3.31121094 15.47916016 -3.30992187 14.77082031 -3.30859375 14.04101562 C-3.21033189 8.70048358 -2.37252869 4.74505737 0 0 Z " fill="#74787E" transform="translate(168,52)"/>
<path d="M0 0 C3.63847984 6.74825297 2.76954115 15.1250521 0.8125 22.375 C-0.72711828 26.9050307 -3.01224867 30.28549834 -6 34 C-6 30.35167014 -4.86745089 29.08847648 -3 26 C-0.72166317 20.59732628 -0.57270299 15.39957472 -0.375 9.625 C-0.33632813 8.69816406 -0.29765625 7.77132812 -0.2578125 6.81640625 C-0.16412409 4.5444623 -0.07840652 2.27251404 0 0 Z " fill="#707176" transform="translate(334,244)"/>
<path d="M0 0 C2.0625 0.4375 2.0625 0.4375 4 1 C-7.10001983 6.10600912 -18.2562705 6.1316612 -30 3 C-30 2.67 -30 2.34 -30 2 C-23.35590042 1.78567421 -17.46794133 2.48766299 -11 4 C-11 3.34 -11 2.68 -11 2 C-10.28972656 1.93941406 -9.57945312 1.87882812 -8.84765625 1.81640625 C-7.46900391 1.69072266 -7.46900391 1.69072266 -6.0625 1.5625 C-5.14597656 1.48128906 -4.22945312 1.40007812 -3.28515625 1.31640625 C-1.03840268 1.23955024 -1.03840268 1.23955024 0 0 Z " fill="#3F4B51" transform="translate(219,473)"/>
<path d="M0 0 C0.33 1.32 0.66 2.64 1 4 C0.34 4 -0.32 4 -1 4 C-0.8604947 7.39612414 -0.71227678 10.79181458 -0.5625 14.1875 C-0.52318359 15.14720703 -0.48386719 16.10691406 -0.44335938 17.09570312 C-0.40146484 18.02705078 -0.35957031 18.95839844 -0.31640625 19.91796875 C-0.26141968 21.19837036 -0.26141968 21.19837036 -0.20532227 22.50463867 C0.00531094 25.06454594 0.44841536 27.49333243 1 30 C-3.51131543 24.96671419 -3.60772035 18.50470982 -4 12 C-3.57413634 7.28274095 -2.63068062 3.94602093 0 0 Z " fill="#74787C" transform="translate(85,426)"/>
<path d="M0 0 C-7.52994758 6.22039148 -15.37021071 7.62127673 -25 7 C-27.72234721 6.45740159 -30.32657718 5.76383509 -33 5 C-29.9317362 4.10250178 -27.20730024 3.88288232 -24.015625 3.90234375 C-23.08105469 3.90556641 -22.14648438 3.90878906 -21.18359375 3.91210938 C-20.21550781 3.92048828 -19.24742188 3.92886719 -18.25 3.9375 C-17.26644531 3.94201172 -16.28289062 3.94652344 -15.26953125 3.95117188 C-12.84629209 3.96293517 -10.42317727 3.97937316 -8 4 C-8 3.34 -8 2.68 -8 2 C-3.61016949 -1.20338983 -3.61016949 -1.20338983 0 0 Z " fill="#8D9296" transform="translate(134,186)"/>
<path d="M0 0 C0 0.33 0 0.66 0 1 C-6.27 1.33 -12.54 1.66 -19 2 C-19.33 2.66 -19.66 3.32 -20 4 C-22.28515625 4.6328125 -22.28515625 4.6328125 -25.0625 5.125 C-25.98160156 5.29257813 -26.90070313 5.46015625 -27.84765625 5.6328125 C-28.91306641 5.81457031 -28.91306641 5.81457031 -30 6 C-21.63868223 -1.82187791 -10.76053373 -2.39983126 0 0 Z " fill="#929295" transform="translate(124,130)"/>
<path d="M0 0 C3.26153433 2.6402897 4.8537873 6.0438336 6 10 C6.34404899 13.49103405 6.28586901 16.93404979 6.1875 20.4375 C6.17396484 21.35982422 6.16042969 22.28214844 6.14648438 23.23242188 C6.11140953 25.48890383 6.06226387 27.74413226 6 30 C5.67 30 5.34 30 5 30 C5 24.06 5 18.12 5 12 C4.01 12 3.02 12 2 12 C2 10.02 2 8.04 2 6 C1.34 6 0.68 6 0 6 C0 4.02 0 2.04 0 0 Z " fill="#5A5E63" transform="translate(329,419)"/>
<path d="M0 0 C0 0.99 0 1.98 0 3 C-0.66 3 -1.32 3 -2 3 C-2.309375 3.94875 -2.61875 4.8975 -2.9375 5.875 C-4 9 -4 9 -5 11 C-7.3140622 11.73075648 -9.64828869 12.40138258 -12 13 C-10.33786678 7.86249731 -6.12730521 0 0 0 Z " fill="#40484E" transform="translate(371,227)"/>
<path d="M0 0 C2.97 0 5.94 0 9 0 C8 2 8 2 4.96875 3.109375 C0.79881192 4.19440991 -3.2113072 4.29603248 -7.5 4.25 C-8.22058594 4.25773437 -8.94117188 4.26546875 -9.68359375 4.2734375 C-14.47885624 4.25609478 -18.44782059 3.50940686 -23 2 C-23 1.67 -23 1.34 -23 1 C-20.36 1 -17.72 1 -15 1 C-15 1.66 -15 2.32 -15 3 C-12.68690295 2.88658363 -10.37449815 2.75896193 -8.0625 2.625 C-6.77472656 2.55539062 -5.48695313 2.48578125 -4.16015625 2.4140625 C-3.11730469 2.27742188 -2.07445312 2.14078125 -1 2 C-0.67 1.34 -0.34 0.68 0 0 Z " fill="#657276" transform="translate(305,288)"/>
<path d="M0 0 C10.24060484 -0.58480611 18.90095488 -0.50579163 28 5 C30.328125 7.171875 30.328125 7.171875 32 9 C29.03 8.01 26.06 7.02 23 6 C23 5.34 23 4.68 23 4 C21.906875 4.04125 20.81375 4.0825 19.6875 4.125 C16 4 16 4 13 2 C9.80193335 1.5396236 9.80193335 1.5396236 6.3125 1.375 C4.54326172 1.26285156 4.54326172 1.26285156 2.73828125 1.1484375 C1.83464844 1.09945312 0.93101562 1.05046875 0 1 C0 0.67 0 0.34 0 0 Z " fill="#8B9398" transform="translate(289,122)"/>
<path d="M0 0 C6.0018137 -0.21824777 11.19233704 0.4943096 17 2 C17 1.34 17 0.68 17 0 C20.96 0 24.92 0 29 0 C22.52590545 4.31606303 13.68858758 3.75728592 6.21875 2.55078125 C4.13361464 2.08558491 2.06426255 1.55047001 0 1 C0 0.67 0 0.34 0 0 Z " fill="#525A61" transform="translate(283,382)"/>
<path d="M0 0 C6.6 0 13.2 0 20 0 C19.67 0.99 19.34 1.98 19 3 C15.37 3 11.74 3 8 3 C8 2.34 8 1.68 8 1 C7.01 1.495 7.01 1.495 6 2 C4.00039988 2.039992 1.99952758 2.04346799 0 2 C0 1.34 0 0.68 0 0 Z " fill="#08111B" transform="translate(104,225)"/>
<path d="M0 0 C5.61 0 11.22 0 17 0 C17 0.66 17 1.32 17 2 C16.16597656 2.06058594 15.33195312 2.12117187 14.47265625 2.18359375 C7.96293534 2.66828087 1.48230025 3.23091353 -5 4 C-5 3.34 -5 2.68 -5 2 C-3.35 2 -1.7 2 0 2 C0 1.34 0 0.68 0 0 Z " fill="#070C16" transform="translate(104,132)"/>
<path d="M0 0 C2.86554065 2.86554065 3.45881399 6.09811565 4 10 C3.93331924 15.56308017 2.68304847 20.72644812 1 26 C0.67 26 0.34 26 0 26 C0.08378906 24.86820312 0.16757813 23.73640625 0.25390625 22.5703125 C0.35706608 21.08856219 0.45991453 19.60679018 0.5625 18.125 C0.64661133 17.00544922 0.64661133 17.00544922 0.73242188 15.86328125 C1.13388925 11.80938458 1.13388925 11.80938458 0 8 C-0.13415472 5.3276379 -0.04318541 2.67749512 0 0 Z " fill="#767C80" transform="translate(142,427)"/>
<path d="M0 0 C0.66 0 1.32 0 2 0 C2.33 0.99 2.66 1.98 3 3 C3.66 3.33 4.32 3.66 5 4 C5 5.32 5 6.64 5 8 C6.98 8 8.96 8 11 8 C11.33 9.65 11.66 11.3 12 13 C12.66 13 13.32 13 14 13 C14 13.99 14 14.98 14 16 C13.34 16 12.68 16 12 16 C12 15.34 12 14.68 12 14 C11.443125 13.773125 10.88625 13.54625 10.3125 13.3125 C5.62140242 10.64998516 2.44302724 6.75747411 0 2 C0 1.34 0 0.68 0 0 Z " fill="#313739" transform="translate(84,265)"/>
<path d="M0 0 C7.26 0 14.52 0 22 0 C22 0.66 22 1.32 22 2 C20.80503906 1.98259766 20.80503906 1.98259766 19.5859375 1.96484375 C14.23651889 1.91928909 9.27720658 2.07648885 4 3 C1.625 2.5625 1.625 2.5625 0 2 C0 1.34 0 0.68 0 0 Z " fill="#061019" transform="translate(102,412)"/>
<path d="M0 0 C0 3 0 3 -2 6 C-2.39387788 8.32387947 -2.73486085 10.65793749 -3 13 C-3.99 13 -4.98 13 -6 13 C-6.33 18.28 -6.66 23.56 -7 29 C-7.33 29 -7.66 29 -8 29 C-8.78234908 18.39482355 -8.01270652 11.14367546 -2 2 C-1.34 1.34 -0.68 0.68 0 0 Z " fill="#707379" transform="translate(90,232)"/>
<path d="M0 0 C0.33 0 0.66 0 1 0 C0.6661043 7.84654898 -3.43297979 13.47646388 -8.75 19.0625 C-11 21 -11 21 -13 21 C-13 19 -13 19 -10.625 16.375 C-8 14 -8 14 -6 14 C-6 13.01 -6 12.02 -6 11 C-5.34 11 -4.68 11 -4 11 C-4 9.35 -4 7.7 -4 6 C-3.01 6 -2.02 6 -1 6 C-1.020625 5.195625 -1.04125 4.39125 -1.0625 3.5625 C-1 1 -1 1 0 0 Z " fill="#8E9299" transform="translate(239,171)"/>
<path d="M0 0 C4.95 0 9.9 0 15 0 C14.67 0.99 14.34 1.98 14 3 C9.05 3 4.1 3 -1 3 C-0.67 2.01 -0.34 1.02 0 0 Z " fill="#091018" transform="translate(290,404)"/>
<path d="M0 0 C6.78479878 3.28959941 12.43467257 9.94534957 15 17 C14.6875 19.375 14.6875 19.375 14 21 C12.27735506 17.70450534 10.70554068 14.66881155 10 11 C9.34 11 8.68 11 8 11 C7.525625 10.195625 7.05125 9.39125 6.5625 8.5625 C5.20016328 5.7081924 5.20016328 5.7081924 2 5 C2 4.34 2 3.68 2 3 C1.34 3 0.68 3 0 3 C0 2.01 0 1.02 0 0 Z " fill="#797E89" transform="translate(225,222)"/>
<path d="M0 0 C2.35119399 3.52679099 2.21443452 5.02879485 2.125 9.1875 C2.10695313 10.27417969 2.08890625 11.36085938 2.0703125 12.48046875 C2.03550781 13.72763672 2.03550781 13.72763672 2 15 C2.66 15 3.32 15 4 15 C4 17.64 4 20.28 4 23 C0.56766253 19.56766253 0.04493451 15.88970328 -0.1953125 11.1328125 C-0.18221369 9.79673363 -0.15865184 8.46071923 -0.125 7.125 C-0.11146484 6.09246094 -0.11146484 6.09246094 -0.09765625 5.0390625 C-0.07432513 3.35922162 -0.03846326 1.67956254 0 0 Z " fill="#575B5F" transform="translate(259,433)"/>
<path d="M0 0 C0.33 0 0.66 0 1 0 C1 2.64 1 5.28 1 8 C0.34 8 -0.32 8 -1 8 C-0.67 12.62 -0.34 17.24 0 22 C-0.66 22 -1.32 22 -2 22 C-4.28320493 17.43359013 -3.51802242 11.10220726 -2.328125 6.2734375 C-1.61369136 4.1503564 -0.85815778 2.06877322 0 0 Z " fill="#52585C" transform="translate(358,240)"/>
<path d="M0 0 C6.93477424 2.80693243 11.80444454 8.27251483 15 15 C15.6875 18.8125 15.6875 18.8125 16 22 C15.34 22 14.68 22 14 22 C13.79375 21.030625 13.5875 20.06125 13.375 19.0625 C11.56036569 12.78795459 8.21765191 7.35523172 2.625 3.9375 C1.75875 3.628125 0.8925 3.31875 0 3 C0 2.01 0 1.02 0 0 Z " fill="#767980" transform="translate(318,222)"/>
<path d="M0 0 C0 0.66 0 1.32 0 2 C-2.90548882 4.04169485 -4.40142046 5 -8 5 C-8 5.66 -8 6.32 -8 7 C-10.5 8.625 -10.5 8.625 -13 10 C-12.34 8.02 -11.68 6.04 -11 4 C-10.34 4 -9.68 4 -9 4 C-8.67 3.01 -8.34 2.02 -8 1 C-5.29120665 -0.35439668 -2.99066732 -0.06501451 0 0 Z " fill="#141C25" transform="translate(378,41)"/>
<path d="M0 0 C0.66 0.33 1.32 0.66 2 1 C1.67 1.66 1.34 2.32 1 3 C-1.64 3 -4.28 3 -7 3 C-7 3.66 -7 4.32 -7 5 C-8.32 5 -9.64 5 -11 5 C-11 5.99 -11 6.98 -11 8 C-14 10 -14 10 -16.1875 9.625 C-16.785625 9.41875 -17.38375 9.2125 -18 9 C-12.37165384 4.01005422 -8.59363563 1.27120127 -1 1 C-0.67 0.67 -0.34 0.34 0 0 Z " fill="#575F64" transform="translate(195,217)"/>
<path d="M0 0 C4.95 0 9.9 0 15 0 C9.27275772 2.86362114 4.5158197 3.14122551 -1.8125 3.0625 C-2.50537109 3.05798828 -3.19824219 3.05347656 -3.91210938 3.04882812 C-5.60811068 3.03713156 -7.30406703 3.01919924 -9 3 C-9 2.67 -9 2.34 -9 2 C-6.03 2 -3.06 2 0 2 C0 1.34 0 0.68 0 0 Z " fill="#525F64" transform="translate(204,382)"/>
<path d="M0 0 C0.99 0.33 1.98 0.66 3 1 C-0.69379408 7.08867157 -4.3750207 11.61251614 -10 16 C-10.66 15.67 -11.32 15.34 -12 15 C-11.67 14.34 -11.34 13.68 -11 13 C-10.01 13 -9.02 13 -8 13 C-8.33 12.01 -8.66 11.02 -9 10 C-7.68 10 -6.36 10 -5 10 C-5 9.01 -5 8.02 -5 7 C-4.01 7 -3.02 7 -2 7 C-1.34 4.69 -0.68 2.38 0 0 Z " fill="#4D565B" transform="translate(235,457)"/>
<path d="M0 0 C3.96 0 7.92 0 12 0 C12.33 0.99 12.66 1.98 13 3 C8.38 3 3.76 3 -1 3 C-0.67 2.01 -0.34 1.02 0 0 Z " fill="#0A1115" transform="translate(198,288)"/>
<path d="M0 0 C6.27 0.33 12.54 0.66 19 1 C19 1.66 19 2.32 19 3 C12.73 3 6.46 3 0 3 C0 2.01 0 1.02 0 0 Z " fill="#030B14" transform="translate(377,280)"/>
<path d="M0 0 C1.32 0.66 2.64 1.32 4 2 C0.61127367 5.58806317 -2.76141332 8.45684799 -7 11 C-7.66 11 -8.32 11 -9 11 C-9 10.34 -9 9.68 -9 9 C-8.34 9 -7.68 9 -7 9 C-6.67 7.68 -6.34 6.36 -6 5 C-4.68 5.33 -3.36 5.66 -2 6 C-2.33 5.01 -2.66 4.02 -3 3 C-2.01 2.67 -1.02 2.34 0 2 C0 1.34 0 0.68 0 0 Z " fill="#52585D" transform="translate(323,277)"/>
<path d="M0 0 C5.93242211 1.69497775 10.84041265 4.37823627 15 9 C14.67 9.66 14.34 10.32 14 11 C13.34 10.67 12.68 10.34 12 10 C12 9.34 12 8.68 12 8 C11.01 8 10.02 8 9 8 C9 7.34 9 6.68 9 6 C7.35 6 5.7 6 4 6 C3.67 5.01 3.34 4.02 3 3 C2.01 2.67 1.02 2.34 0 2 C0 1.34 0 0.68 0 0 Z " fill="#767B7E" transform="translate(124,131)"/>
<path d="M0 0 C0.33 0 0.66 0 1 0 C1.86606751 20.95402236 1.86606751 20.95402236 -6 30 C-6.57040341 25.15157102 -4.77088151 22.86244089 -2 19 C-0.76240177 15.28720531 -0.64391103 11.68693654 -0.4375 7.8125 C-0.37272461 6.68811523 -0.37272461 6.68811523 -0.30664062 5.54101562 C-0.20077315 3.69421625 -0.0999024 1.84713166 0 0 Z " fill="#8C8E96" transform="translate(335,60)"/>
<path d="M0 0 C2.5 1.3125 2.5 1.3125 5 3 C5 3.99 5 4.98 5 6 C5.99 5.67 6.98 5.34 8 5 C8.474375 6.11375 8.94875 7.2275 9.4375 8.375 C10.25306463 10.26710994 11.07856355 12.15712709 12 14 C8.66950878 12.57369692 6.68261063 10.84985604 4.3125 8.125 C3.71050781 7.44695312 3.10851562 6.76890625 2.48828125 6.0703125 C0.99233806 3.98934166 0.4210244 2.50369174 0 0 Z " fill="#565B5E" transform="translate(263,84)"/>
<path d="M0 0 C1.98 0 3.96 0 6 0 C6 0.66 6 1.32 6 2 C6.64066406 1.98839844 7.28132813 1.97679687 7.94140625 1.96484375 C13.08653222 1.91116881 17.93024924 2.11830422 23 3 C23 3.33 23 3.66 23 4 C7.75840979 4.3853211 7.75840979 4.3853211 1 2 C0.67 1.34 0.34 0.68 0 0 Z " fill="#484F56" transform="translate(96,187)"/>
<path d="M0 0 C4.0249909 4.0249909 4.25452052 9.05294282 4.2734375 14.47265625 C4.26570312 15.22417969 4.25796875 15.97570312 4.25 16.75 C4.25773438 17.51699219 4.26546875 18.28398437 4.2734375 19.07421875 C4.25349978 24.74650022 4.25349978 24.74650022 2 27 C2 20.73 2 14.46 2 8 C1.34 8 0.68 8 0 8 C0 5.36 0 2.72 0 0 Z " fill="#7F8284" transform="translate(238,144)"/>
<path d="M0 0 C0.33 0.66 0.66 1.32 1 2 C1.99 2.33 2.98 2.66 4 3 C-0.39251833 5.02055843 -4.15340923 6.40895235 -9 7 C-9 6.34 -9 5.68 -9 5 C-8.34 5 -7.68 5 -7 5 C-7 4.34 -7 3.68 -7 3 C-4.69 2.01 -2.38 1.02 0 0 Z " fill="#162028" transform="translate(98,134)"/>
<path d="M0 0 C-3 2 -3 2 -5 2 C-5 2.99 -5 3.98 -5 5 C-6.65 5 -8.3 5 -10 5 C-10 5.66 -10 6.32 -10 7 C-11.98 7.66 -13.96 8.32 -16 9 C-11.7004608 3.30943341 -7.65312804 -0.675276 0 0 Z " fill="#63676F" transform="translate(107,410)"/>
<path d="M0 0 C0.33 0.66 0.66 1.32 1 2 C1.99 2.33 2.98 2.66 4 3 C1 5 1 5 -2.875 5.375 C-6.92089448 5.77063175 -9.0468537 7.13913952 -12 10 C-9.2982485 3.97301588 -5.95436118 2.35927518 0 0 Z " fill="#40454A" transform="translate(280,407)"/>
<path d="M0 0 C0.33 0.66 0.66 1.32 1 2 C0.01 3.485 0.01 3.485 -1 5 C-1.69100553 6.99172182 -2.35902703 8.99161804 -3 11 C-3.33 11.66 -3.66 12.32 -4 13 C-4.23029956 15.37123246 -4.41119942 17.74741943 -4.5625 20.125 C-4.64628906 21.40632813 -4.73007813 22.68765625 -4.81640625 24.0078125 C-4.90728516 25.48894531 -4.90728516 25.48894531 -5 27 C-5.33 27 -5.66 27 -6 27 C-6.50252693 16.40505729 -5.97310347 8.9596552 0 0 Z " fill="#8B8E93" transform="translate(171,233)"/>
<path d="M0 0 C0.66 0 1.32 0 2 0 C2.33 1.32 2.66 2.64 3 4 C2.01 4.66 1.02 5.32 0 6 C0 4.02 0 2.04 0 0 Z M-2 6 C-1.34 6 -0.68 6 0 6 C0 9.96 0 13.92 0 18 C-0.66 18 -1.32 18 -2 18 C-2 14.04 -2 10.08 -2 6 Z " fill="#071018" transform="translate(359,242)"/>
<path d="M0 0 C3.96 0 7.92 0 12 0 C12 0.99 12 1.98 12 3 C8.04 3 4.08 3 0 3 C0 2.01 0 1.02 0 0 Z " fill="#091116" transform="translate(291,217)"/>
<path d="M0 0 C3.63 0 7.26 0 11 0 C11 0.99 11 1.98 11 3 C7.37 3.33 3.74 3.66 0 4 C0 2.68 0 1.36 0 0 Z " fill="#0A1218" transform="translate(197,217)"/>
<path d="M0 0 C0.66 0.33 1.32 0.66 2 1 C1.67 1.66 1.34 2.32 1 3 C0.34 3 -0.32 3 -1 3 C-1.268125 3.969375 -1.53625 4.93875 -1.8125 5.9375 C-2.204375 6.948125 -2.59625 7.95875 -3 9 C-3.99 9.33 -4.98 9.66 -6 10 C-7.66710346 11.49985609 -7.66710346 11.49985609 -9 13 C-7.85569823 9.12697862 -6.76679902 5.99736561 -4 3 C-3.34 3 -2.68 3 -2 3 C-2 2.34 -2 1.68 -2 1 C-1.34 0.67 -0.68 0.34 0 0 Z " fill="#5F6265" transform="translate(368,42)"/>
<path d="M0 0 C0.33 0 0.66 0 1 0 C1.04898437 0.92683594 1.09796875 1.85367187 1.1484375 2.80859375 C1.22320312 4.00613281 1.29796875 5.20367187 1.375 6.4375 C1.44460938 7.63246094 1.51421875 8.82742188 1.5859375 10.05859375 C1.72257812 11.02925781 1.85921875 11.99992187 2 13 C2.66 13.33 3.32 13.66 4 14 C4 16.97 4 19.94 4 23 C0.56766253 19.56766253 0.04493451 15.88970328 -0.1953125 11.1328125 C-0.18221369 9.79673363 -0.15865184 8.46071923 -0.125 7.125 C-0.11146484 6.09246094 -0.11146484 6.09246094 -0.09765625 5.0390625 C-0.07432513 3.35922162 -0.03846326 1.67956254 0 0 Z " fill="#62686C" transform="translate(259,340)"/>
<path d="M0 0 C-0.33 0.66 -0.66 1.32 -1 2 C-2.32 2 -3.64 2 -5 2 C-5.33 2.99 -5.66 3.98 -6 5 C-8.8125 6.0625 -8.8125 6.0625 -12 7 C-13.34721283 7.63815344 -14.68747118 8.29325371 -16 9 C-6.24806202 -3.12403101 -6.24806202 -3.12403101 0 0 Z " fill="#5D6367" transform="translate(190,127)"/>
<path d="M0 0 C0.99 0 1.98 0 3 0 C2.46702236 4.53030991 0.83979945 7.45025069 -2 11 C-4.75 12.375 -4.75 12.375 -7 13 C-6.34 11.35 -5.68 9.7 -5 8 C-4.01 8 -3.02 8 -2 8 C-2 7.01 -2 6.02 -2 5 C-1.34 5 -0.68 5 0 5 C0 3.35 0 1.7 0 0 Z " fill="#565A5F" transform="translate(139,452)"/>
<path d="M0 0 C6.93 0.495 6.93 0.495 14 1 C14 1.66 14 2.32 14 3 C9.38 3 4.76 3 0 3 C0 2.01 0 1.02 0 0 Z " fill="#061016" transform="translate(290,194)"/>
<path d="M0 0 C2.31 0 4.62 0 7 0 C7.33 0.66 7.66 1.32 8 2 C11.27555608 2.47001033 11.27555608 2.47001033 15.0625 2.625 C16.99802734 2.73714844 16.99802734 2.73714844 18.97265625 2.8515625 C20.47119141 2.92503906 20.47119141 2.92503906 22 3 C22 3.33 22 3.66 22 4 C19.45767658 4.08152344 16.91800798 4.14073716 14.375 4.1875 C13.30572266 4.22520508 13.30572266 4.22520508 12.21484375 4.26367188 C7.37723584 4.33024446 4.25261662 3.55559453 0 1 C0 0.67 0 0.34 0 0 Z " fill="#616368" transform="translate(186,101)"/>
<path d="M0 0 C3.3 0 6.6 0 10 0 C10 0.99 10 1.98 10 3 C6.7 3 3.4 3 0 3 C0 2.01 0 1.02 0 0 Z " fill="#0B1013" transform="translate(292,288)"/>
<path d="M0 0 C0.33 0 0.66 0 1 0 C1 4.29 1 8.58 1 13 C1.66 13 2.32 13 3 13 C3 15.97 3 18.94 3 22 C-0.09732871 18.90267129 0.0112186 16.44694906 -0.09765625 12.109375 C-0.09105099 10.65621776 -0.07918727 9.20307644 -0.0625 7.75 C-0.05798828 7.00492188 -0.05347656 6.25984375 -0.04882812 5.4921875 C-0.03709246 3.6614236 -0.0191585 1.83070127 0 0 Z " fill="#3F444A" transform="translate(260,248)"/>
<path d="M0 0 C0.66 0 1.32 0 2 0 C2 0.66 2 1.32 2 2 C3.32 1.67 4.64 1.34 6 1 C6.33 2.65 6.66 4.3 7 6 C8.65 6.33 10.3 6.66 12 7 C11.67 7.99 11.34 8.98 11 10 C5.78172467 8.61869182 3.07338663 5.21402497 0 1 C0 0.67 0 0.34 0 0 Z " fill="#585B5F" transform="translate(361,364)"/>
<path d="M0 0 C0 2.83967231 -0.40267181 5.23735711 -1 8 C-1.99 8 -2.98 8 -4 8 C-4.33 8.99 -4.66 9.98 -5 11 C-5.66 11 -6.32 11 -7 11 C-5.5140084 6.40693504 -3.14985318 3.56430755 0 0 Z " fill="#656F72" transform="translate(176,320)"/>
<path d="M0 0 C3.47478479 3.01148016 4.97043629 5.50735835 6 10 C5.625 12.375 5.625 12.375 5 14 C4.54625 12.865625 4.0925 11.73125 3.625 10.5625 C2.42904194 6.95278308 2.42904194 6.95278308 0 6 C0 4.02 0 2.04 0 0 Z " fill="#63676A" transform="translate(235,46)"/>
<path d="M0 0 C0.66 0.33 1.32 0.66 2 1 C1.28972656 1.53109375 0.57945312 2.0621875 -0.15234375 2.609375 C-1.07144531 3.31578125 -1.99054688 4.0221875 -2.9375 4.75 C-4.31228516 5.79414063 -4.31228516 5.79414063 -5.71484375 6.859375 C-8.01098513 9.01029035 -8.67567593 9.93617261 -9 13 C-9.99 13 -10.98 13 -12 13 C-10.63924722 7.3868948 -6.37378806 4.38968575 -2 1 C-1.34 0.67 -0.68 0.34 0 0 Z " fill="#7E8386" transform="translate(373,318)"/>
<path d="M0 0 C2.64752004 2.57784846 4.94432065 4.91648098 7 8 C6.34 8.66 5.68 9.32 5 10 C2.69 7.36 0.38 4.72 -2 2 C-1.34 1.34 -0.68 0.68 0 0 Z " fill="#1F252B" transform="translate(174,86)"/>
<path d="M0 0 C0 0.99 0 1.98 0 3 C-1.546875 3.12375 -1.546875 3.12375 -3.125 3.25 C-7.52975387 4.10253301 -9.48512937 5.34241489 -13 8 C-13.66 7.67 -14.32 7.34 -15 7 C-12.73946101 4.47138427 -10.60099936 3.16143472 -7.5 1.8125 C-6.7265625 1.46832031 -5.953125 1.12414062 -5.15625 0.76953125 C-3 0 -3 0 0 0 Z " fill="#808488" transform="translate(288,310)"/>
<path d="M0 0 C1 3 1 3 -0.109375 5.2265625 C-0.92148438 6.41378906 -0.92148438 6.41378906 -1.75 7.625 C-2.54664063 8.81996094 -2.54664063 8.81996094 -3.359375 10.0390625 C-5 12 -5 12 -8 13 C-7.67 12.01 -7.34 11.02 -7 10 C-6.34 10 -5.68 10 -5 10 C-4.9175 9.46375 -4.835 8.9275 -4.75 8.375 C-3.73623902 5.1647569 -1.92839451 2.73707608 0 0 Z " fill="#96999D" transform="translate(142,172)"/>
<path d="M0 0 C0.33 1.32 0.66 2.64 1 4 C0.34 4 -0.32 4 -1 4 C-1 6.97 -1 9.94 -1 13 C-1.99 13.33 -2.98 13.66 -4 14 C-3.53328373 8.58609132 -2.75702189 4.79482068 0 0 Z " fill="#606569" transform="translate(264,141)"/>
<path d="M0 0 C1.65 0 3.3 0 5 0 C-3.44827586 7 -3.44827586 7 -7 7 C-7 6.34 -7 5.68 -7 5 C-6.34 5 -5.68 5 -5 5 C-5 4.01 -5 3.02 -5 2 C-3.35 2 -1.7 2 0 2 C0 1.34 0 0.68 0 0 Z " fill="#0B161F" transform="translate(185,36)"/>
<path d="M0 0 C0 0.99 0 1.98 0 3 C-3.63423209 5.32590854 -6.77088331 5.16265833 -11 5 C-10.67 4.34 -10.34 3.68 -10 3 C-8.35 3 -6.7 3 -5 3 C-5 2.34 -5 1.68 -5 1 C-3 0 -3 0 0 0 Z " fill="#0A141A" transform="translate(222,470)"/>
<path d="M0 0 C1.32 0 2.64 0 4 0 C2.6581656 4.02550319 0.5772427 4.88285636 -3 7 C-3.66 7 -4.32 7 -5 7 C-5 6.34 -5 5.68 -5 5 C-4.34 5 -3.68 5 -3 5 C-3 4.01 -3 3.02 -3 2 C-2.01 2 -1.02 2 0 2 C0 1.34 0 0.68 0 0 Z " fill="#0C161E" transform="translate(97,415)"/>
<path d="M0 0 C3.82352106 1.5577308 6.29205593 3.91595258 9 7 C9 7.99 9 8.98 9 10 C6.95880212 8.38405168 4.95927063 6.7143618 3 5 C3 4.34 3 3.68 3 3 C2.01 3 1.02 3 0 3 C0 2.01 0 1.02 0 0 Z " fill="#8C8F94" transform="translate(130,227)"/>
<path d="M0 0 C0 2.83967231 -0.40267181 5.23735711 -1 8 C-1.99 8 -2.98 8 -4 8 C-4.12375 8.969375 -4.2475 9.93875 -4.375 10.9375 C-4.58125 11.948125 -4.7875 12.95875 -5 14 C-5.99 14.495 -5.99 14.495 -7 15 C-5.34292168 9.35086937 -3.52237988 4.73699363 0 0 Z " fill="#5F646B" transform="translate(267,417)"/>
<path d="M0 0 C2.31 0 4.62 0 7 0 C7 0.66 7 1.32 7 2 C5.906875 2.28875 4.81375 2.5775 3.6875 2.875 C-0.04013845 3.81893204 -0.04013845 3.81893204 -3 6 C-3.33 5.01 -3.66 4.02 -4 3 C-3.01 3 -2.02 3 -1 3 C-0.67 2.01 -0.34 1.02 0 0 Z " fill="#0B141D" transform="translate(189,313)"/>
<path d="M0 0 C0 0.33 0 0.66 0 1 C-1.39025391 1.19916016 -1.39025391 1.19916016 -2.80859375 1.40234375 C-4.60490234 1.66724609 -4.60490234 1.66724609 -6.4375 1.9375 C-7.63246094 2.11152344 -8.82742187 2.28554687 -10.05859375 2.46484375 C-12.87955676 2.68985213 -12.87955676 2.68985213 -14 4 C-15.99958364 4.04080783 -18.00045254 4.04254356 -20 4 C-13.50700359 -0.32866427 -7.56220495 -0.24220585 0 0 Z " fill="#A6A8AA" transform="translate(208,215)"/>
<path d="M0 0 C0.33 0.66 0.66 1.32 1 2 C1.66 2 2.32 2 3 2 C3 3.65 3 5.3 3 7 C3.66 7 4.32 7 5 7 C6.6875 9.375 6.6875 9.375 8 12 C7.67 12.66 7.34 13.32 7 14 C0.29612756 5.92255125 0.29612756 5.92255125 0 0 Z " fill="#61666A" transform="translate(169,174)"/>
<path d="M0 0 C3.21524305 1.40844718 5.32183868 3.10344786 7.75 5.625 C8.67039062 6.57246094 8.67039062 6.57246094 9.609375 7.5390625 C10.29773438 8.26222656 10.29773438 8.26222656 11 9 C10.67 9.66 10.34 10.32 10 11 C9.236875 10.195625 8.47375 9.39125 7.6875 8.5625 C5.20569102 5.83200976 5.20569102 5.83200976 2 5 C2 4.01 2 3.02 2 2 C1.34 2 0.68 2 0 2 C0 1.34 0 0.68 0 0 Z " fill="#727376" transform="translate(319,316)"/>
<path d="M0 0 C1.01299606 2.65602626 1.07672553 3.78395707 0.109375 6.5078125 C-0.33921875 7.37148438 -0.7878125 8.23515625 -1.25 9.125 C-1.68828125 9.99382812 -2.1265625 10.86265625 -2.578125 11.7578125 C-4 14 -4 14 -7 16 C-5.87548273 13.0280615 -4.77706209 10.66559313 -3 8 C-2.30899447 6.00827818 -1.64097297 4.00838196 -1 2 C-0.67 1.34 -0.34 0.68 0 0 Z " fill="#7A7E80" transform="translate(334,262)"/>
<path d="M0 0 C0.66 0 1.32 0 2 0 C2 0.66 2 1.32 2 2 C4.31 2.33 6.62 2.66 9 3 C9 3.66 9 4.32 9 5 C6.36 5 3.72 5 1 5 C0.34 3.68 -0.32 2.36 -1 1 C-0.67 0.67 -0.34 0.34 0 0 Z " fill="#101821" transform="translate(185,96)"/>
<path d="M0 0 C5.44208234 0.34013015 8.93668198 3.70296528 13 7 C9.34899606 7 7.89878202 5.9552415 4.8125 4.0625 C3.46091797 3.24458984 3.46091797 3.24458984 2.08203125 2.41015625 C1.39496094 1.94480469 0.70789063 1.47945313 0 1 C0 0.67 0 0.34 0 0 Z " fill="#858A8C" transform="translate(124,411)"/>
<path d="M0 0 C2.0625 0.4375 2.0625 0.4375 4 1 C4 1.66 4 2.32 4 3 C3.01 3 2.02 3 1 3 C1 3.66 1 4.32 1 5 C0.01 5 -0.98 5 -2 5 C-1.125 1.125 -1.125 1.125 0 0 Z M-4 5 C-3.34 5 -2.68 5 -2 5 C-2 5.66 -2 6.32 -2 7 C-2.66 7 -3.32 7 -4 7 C-4 6.34 -4 5.68 -4 5 Z " fill="#101A20" transform="translate(179,412)"/>
<path d="M0 0 C0.66 0.33 1.32 0.66 2 1 C0.625 2.5 0.625 2.5 -1 4 C-1.66 4 -2.32 4 -3 4 C-3 4.66 -3 5.32 -3 6 C-3.99 6 -4.98 6 -6 6 C-6 6.66 -6 7.32 -6 8 C-6.99 7.67 -7.98 7.34 -9 7 C-6.04399553 4.50381844 -3.22113035 2.14742023 0 0 Z " fill="#848689" transform="translate(100,224)"/>
<path d="M0 0 C4 0 4 0 5.75 1.375 C7 3 7 3 7 5 C7.99 5 8.98 5 10 5 C10 5.66 10 6.32 10 7 C6.12697862 5.85569823 2.99736561 4.76679902 0 2 C0 1.34 0 0.68 0 0 Z " fill="#5A616D" transform="translate(270,187)"/>
<path d="M0 0 C0.66 0.33 1.32 0.66 2 1 C1.34 1.66 0.68 2.32 0 3 C-0.99 3 -1.98 3 -3 3 C-2.67 3.99 -2.34 4.98 -2 6 C-3.65 6 -5.3 6 -7 6 C-7 6.66 -7 7.32 -7 8 C-7.99 7.67 -8.98 7.34 -10 7 C-3.23076923 1.15384615 -3.23076923 1.15384615 0 0 Z " fill="#2D333A" transform="translate(282,126)"/>
<path d="M0 0 C0.33 0 0.66 0 1 0 C1 1.98 1 3.96 1 6 C0.01 6 -0.98 6 -2 6 C-2.33 7.98 -2.66 9.96 -3 12 C-3.66 11.67 -4.32 11.34 -5 11 C-4.35731563 9.35293447 -3.71076198 7.70737825 -3.0625 6.0625 C-2.70285156 5.14597656 -2.34320313 4.22945312 -1.97265625 3.28515625 C-1 1 -1 1 0 0 Z " fill="#5C6C6F" transform="translate(265,46)"/>
<path d="M0 0 C0.33 1.32 0.66 2.64 1 4 C0.401875 4.391875 -0.19625 4.78375 -0.8125 5.1875 C-3.25511232 7.21137878 -4.50112814 9.22708706 -6 12 C-6.33 11.34 -6.66 10.68 -7 10 C-6.02223933 8.51990357 -5.0427506 7.04094856 -4.0625 5.5625 C-3.51722656 4.73878906 -2.97195312 3.91507813 -2.41015625 3.06640625 C-1 1 -1 1 0 0 Z " fill="#666B72" transform="translate(176,40)"/>
<path d="M0 0 C1.5625 1.25 1.5625 1.25 3 3 C2.875 5.0625 2.875 5.0625 2 7 C1.01 7.66 0.02 8.32 -1 9 C-1.33 7.68 -1.66 6.36 -2 5 C-1.34 5 -0.68 5 0 5 C0 3.35 0 1.7 0 0 Z " fill="#40474C" transform="translate(139,422)"/>
<path d="M0 0 C0.33 0 0.66 0 1 0 C1.36923077 5.53846154 1.36923077 5.53846154 -0.5 7.875 C-1.2425 8.431875 -1.2425 8.431875 -2 9 C-2 8.34 -2 7.68 -2 7 C-2.66 7 -3.32 7 -4 7 C-3.67 5.68 -3.34 4.36 -3 3 C-2.01 3 -1.02 3 0 3 C0 2.01 0 1.02 0 0 Z " fill="#373E44" transform="translate(414,264)"/>
<path d="M0 0 C0.99 0.495 0.99 0.495 2 1 C2.6328125 3.06640625 2.6328125 3.06640625 3.125 5.5625 C3.29257813 6.38878906 3.46015625 7.21507812 3.6328125 8.06640625 C3.75398437 8.70449219 3.87515625 9.34257812 4 10 C2.68 9.34 1.36 8.68 0 8 C0 5.36 0 2.72 0 0 Z " fill="#0C1420" transform="translate(170,263)"/>
<path d="M0 0 C1.98 0.495 1.98 0.495 4 1 C2.68 3.31 1.36 5.62 0 8 C-0.33 8 -0.66 8 -1 8 C-1.125 2.25 -1.125 2.25 0 0 Z " fill="#0F1821" transform="translate(171,235)"/>
<path d="M0 0 C0.99 0 1.98 0 3 0 C3.226875 0.70125 3.45375 1.4025 3.6875 2.125 C5.31656867 5.69343613 7.40640731 8.06514511 10 11 C6.8510285 9.63088196 4.9521513 8.1247864 2.75 5.5 C2.22921875 4.8915625 1.7084375 4.283125 1.171875 3.65625 C0 2 0 2 0 0 Z " fill="#747C7D" transform="translate(86,176)"/>
<path d="M0 0 C0.33 0 0.66 0 1 0 C0.53199289 4.05606165 0.12046792 7.46588679 -2 11 C-2.66 11 -3.32 11 -4 11 C-4 9.35 -4 7.7 -4 6 C-3.01 6 -2.02 6 -1 6 C-1.020625 5.195625 -1.04125 4.39125 -1.0625 3.5625 C-1 1 -1 1 0 0 Z " fill="#697079" transform="translate(239,171)"/>
<path d="M0 0 C0 0.99 0 1.98 0 3 C-1.36125 3.4021875 -1.36125 3.4021875 -2.75 3.8125 C-5.71471963 4.89576294 -7.6169754 5.98359457 -10 8 C-10.66 7.67 -11.32 7.34 -12 7 C-10.70982586 6.01886757 -9.41780894 5.04015801 -8.125 4.0625 C-7.04605469 3.24458984 -7.04605469 3.24458984 -5.9453125 2.41015625 C-2.62049861 0 -2.62049861 0 0 0 Z " fill="#7B8082" transform="translate(189,32)"/>
<path d="M0 0 C0 0.99 0 1.98 0 3 C-2.64 3 -5.28 3 -8 3 C-8 2.34 -8 1.68 -8 1 C-5.07175348 0.02391783 -3.04386724 -0.08226668 0 0 Z " fill="#0C151C" transform="translate(218,379)"/>
<path d="M0 0 C2.25 0.125 2.25 0.125 5 1 C7.3125 4.0625 7.3125 4.0625 9 7 C4.58110387 5.64978174 2.65654657 3.73884332 0 0 Z " fill="#646A6F" transform="translate(268,372)"/>
<path d="M0 0 C2.97 0 5.94 0 9 0 C8.67 0.66 8.34 1.32 8 2 C5.93359375 2.4140625 5.93359375 2.4140625 3.4375 2.625 C2.61121094 2.69976562 1.78492188 2.77453125 0.93359375 2.8515625 C-0.02353516 2.92503906 -0.02353516 2.92503906 -1 3 C-0.67 2.01 -0.34 1.02 0 0 Z " fill="#4F575B" transform="translate(305,288)"/>
<path d="M0 0 C0.66 0 1.32 0 2 0 C2.33 0.99 2.66 1.98 3 3 C3.66 3.33 4.32 3.66 5 4 C5 5.32 5 6.64 5 8 C5.99 8.33 6.98 8.66 8 9 C7.01 9.495 7.01 9.495 6 10 C2.51668565 6.98112756 1.20842856 4.43090471 0 0 Z " fill="#5C6365" transform="translate(84,265)"/>
<path d="M0 0 C0.33 0 0.66 0 1 0 C1 1.65 1 3.3 1 5 C1.66 5.33 2.32 5.66 3 6 C0.69 6.66 -1.62 7.32 -4 8 C-2.87548273 5.0280615 -1.77706209 2.66559313 0 0 Z " fill="#4D555D" transform="translate(363,232)"/>
<path d="M0 0 C0.99 0.33 1.98 0.66 3 1 C3 4.3 3 7.6 3 11 C0.43383368 7.15075052 0.44902324 4.5650696 0 0 Z " fill="#72777C" transform="translate(166,166)"/>
<path d="M0 0 C-0.33 0.66 -0.66 1.32 -1 2 C-3.28515625 2.6328125 -3.28515625 2.6328125 -6.0625 3.125 C-6.98160156 3.29257813 -7.90070313 3.46015625 -8.84765625 3.6328125 C-9.91306641 3.81457031 -9.91306641 3.81457031 -11 4 C-4.45754717 -1.33726415 -4.45754717 -1.33726415 0 0 Z " fill="#74797D" transform="translate(105,132)"/>
<path d="M0 0 C-1 2 -1 2 -3.3125 3.125 C-6 4 -6 4 -10 4 C-10 3.34 -10 2.68 -10 2 C-6.5980513 -0.09350689 -3.94727588 -0.17942163 0 0 Z " fill="#0B141D" transform="translate(289,127)"/>
<path d="M0 0 C0.99 0 1.98 0 3 0 C3 0.99 3 1.98 3 3 C3.99 3 4.98 3 6 3 C6.66 4.98 7.32 6.96 8 9 C1.42857143 3.85714286 1.42857143 3.85714286 0 0 Z " fill="#4C5459" transform="translate(86,456)"/>
<path d="M0 0 C3.00617269 3.00617269 2.59585316 5.82381598 3 10 C2.34 10 1.68 10 1 10 C-0.60725635 6.78548731 -0.05748185 3.56387464 0 0 Z " fill="#687075" transform="translate(142,427)"/>
<path d="M0 0 C3.71599191 -0.20086443 4.77208445 -0.1519437 8 2 C7.67 2.99 7.34 3.98 7 5 C6.01 4.67 5.02 4.34 4 4 C4.33 3.34 4.66 2.68 5 2 C3.35 2 1.7 2 0 2 C0 1.34 0 0.68 0 0 Z " fill="#0C141D" transform="translate(124,228)"/>
<path d="M0 0 C7.57142857 2.85714286 7.57142857 2.85714286 10 7 C7.625 6.6875 7.625 6.6875 5 6 C4.34 5.01 3.68 4.02 3 3 C2.01 2.67 1.02 2.34 0 2 C0 1.34 0 0.68 0 0 Z " fill="#858790" transform="translate(220,126)"/>
<path d="M0 0 C4.38889325 0.66498383 7.9811485 2.18757677 12 4 C9.5332355 4.88336837 8.36140628 5.1312406 5.859375 4.22265625 C5.16328125 3.83980469 4.4671875 3.45695312 3.75 3.0625 C3.04359375 2.68222656 2.3371875 2.30195312 1.609375 1.91015625 C1.07828125 1.60980469 0.5471875 1.30945313 0 1 C0 0.67 0 0.34 0 0 Z " fill="#919398" transform="translate(371,94)"/>
<path d="M0 0 C2.64 0.33 5.28 0.66 8 1 C7.67 1.66 7.34 2.32 7 3 C5.02 3 3.04 3 1 3 C0.67 2.01 0.34 1.02 0 0 Z " fill="#0A141B" transform="translate(284,379)"/>
<path d="M0 0 C3.37462715 0.54723683 5.08235 1.0549 8 3 C8 3.66 8 4.32 8 5 C7.01 5 6.02 5 5 5 C5 4.34 5 3.68 5 3 C3.35 2.67 1.7 2.34 0 2 C0 1.34 0 0.68 0 0 Z " fill="#66696F" transform="translate(399,318)"/>
<path d="M0 0 C4.43090471 1.20842856 6.98112756 2.51668565 10 6 C8.68 6 7.36 6 6 6 C5.67 5.34 5.34 4.68 5 4 C3.34051852 2.98812105 1.67419438 1.9873454 0 1 C0 0.67 0 0.34 0 0 Z " fill="#7C7F82" transform="translate(397,224)"/>
<path d="M0 0 C0.99 0.33 1.98 0.66 3 1 C2.0479279 2.00596297 1.08812654 3.00461563 0.125 4 C-0.40867187 4.556875 -0.94234375 5.11375 -1.4921875 5.6875 C-3 7 -3 7 -5 7 C-5 6.34 -5 5.68 -5 5 C-4.34 5 -3.68 5 -3 5 C-3 4.01 -3 3.02 -3 2 C-2.01 2 -1.02 2 0 2 C0 1.34 0 0.68 0 0 Z " fill="#676B6E" transform="translate(324,185)"/>
<path d="M0 0 C0.66 0 1.32 0 2 0 C2 0.99 2 1.98 2 3 C1.34 3 0.68 3 0 3 C0 3.66 0 4.32 0 5 C-0.99 5 -1.98 5 -3 5 C-3 5.66 -3 6.32 -3 7 C-3.66 7 -4.32 7 -5 7 C-4.1875 5.0625 -4.1875 5.0625 -3 3 C-2.01 2.67 -1.02 2.34 0 2 C0 1.34 0 0.68 0 0 Z " fill="#0D151A" transform="translate(324,182)"/>
<path d="M0 0 C2 3 2 3 2 6 C1.01 6 0.02 6 -1 6 C-1 6.99 -1 7.98 -1 9 C-1.66 9 -2.32 9 -3 9 C-2.30058404 5.85262818 -1.23921302 2.97411124 0 0 Z " fill="#09131C" transform="translate(236,171)"/>
<path d="M0 0 C-0.33 0.99 -0.66 1.98 -1 3 C-3.5625 4.1875 -3.5625 4.1875 -6 5 C-6 3.68 -6 2.36 -6 1 C-3 0 -3 0 0 0 Z " fill="#0F191F" transform="translate(95,140)"/>
<path d="M0 0 C3.465 1.485 3.465 1.485 7 3 C7 3.66 7 4.32 7 5 C5.35 5 3.7 5 2 5 C2 4.34 2 3.68 2 3 C1.01 2.67 0.02 2.34 -1 2 C-0.67 1.34 -0.34 0.68 0 0 Z " fill="#09121C" transform="translate(279,96)"/>
<path d="M0 0 C0.66 0 1.32 0 2 0 C2.33 0.99 2.66 1.98 3 3 C0.3333581 4.33332095 -1.16680303 3.67102033 -4 3 C-4 3.66 -4 4.32 -4 5 C-5.32 4.67 -6.64 4.34 -8 4 C-4.77208445 1.8480563 -3.71599191 1.79913557 0 2 C0 1.34 0 0.68 0 0 Z " fill="#1F272C" transform="translate(189,33)"/>
<path d="M0 0 C0.99 0.33 1.98 0.66 3 1 C2.34 2.65 1.68 4.3 1 6 C0.01 5.67 -0.98 5.34 -2 5 C-1.125 1.125 -1.125 1.125 0 0 Z " fill="#111A20" transform="translate(177,321)"/>
<path d="M0 0 C2.64 0 5.28 0 8 0 C8 0.66 8 1.32 8 2 C8.66 2.33 9.32 2.66 10 3 C2.25 2.25 2.25 2.25 0 0 Z " fill="#4B5E62" transform="translate(187,288)"/>
<path d="M0 0 C7.50769231 -0.36923077 7.50769231 -0.36923077 10 1.5 C10.495 2.2425 10.495 2.2425 11 3 C9.741875 2.87625 8.48375 2.7525 7.1875 2.625 C6.12595703 2.52058594 6.12595703 2.52058594 5.04296875 2.4140625 C3 2 3 2 0 0 Z " fill="#58656A" transform="translate(188,195)"/>
<path d="M0 0 C3.00617269 3.00617269 2.59585316 5.82381598 3 10 C2.67 9.34 2.34 8.68 2 8 C1.34 8 0.68 8 0 8 C0 5.36 0 2.72 0 0 Z " fill="#565B62" transform="translate(238,144)"/>
<path d="M0 0 C0.66 0.33 1.32 0.66 2 1 C2 1.99 2 2.98 2 4 C0.02 4.33 -1.96 4.66 -4 5 C-4 4.34 -4 3.68 -4 3 C-3.34 3 -2.68 3 -2 3 C-2 2.34 -2 1.68 -2 1 C-1.34 0.67 -0.68 0.34 0 0 Z " fill="#575B60" transform="translate(93,136)"/>
<path d="M0 0 C0 3 0 3 -2.375 5.6875 C-5 8 -5 8 -7 8 C-7 7.34 -7 6.68 -7 6 C-5.46875 4.4921875 -5.46875 4.4921875 -3.5 2.875 C-2.8503125 2.33617188 -2.200625 1.79734375 -1.53125 1.2421875 C-1.0259375 0.83226563 -0.520625 0.42234375 0 0 Z " fill="#8A8C8E" transform="translate(412,86)"/>
<path d="M0 0 C2.31 1.98 4.62 3.96 7 6 C6.67 6.99 6.34 7.98 6 9 C1.125 4.5 1.125 4.5 0 0 Z " fill="#72767B" transform="translate(360,82)"/>
<path d="M0 0 C0.66 0.33 1.32 0.66 2 1 C-2.75 5.875 -2.75 5.875 -5 7 C-4.1875 4.0625 -4.1875 4.0625 -3 1 C-2.01 0.67 -1.02 0.34 0 0 Z " fill="#0E151B" transform="translate(370,44)"/>
<path d="M0 0 C0.99 0 1.98 0 3 0 C2.75 2.375 2.75 2.375 2 5 C-0.0625 6.3125 -0.0625 6.3125 -2 7 C-2 6.34 -2 5.68 -2 5 C-1.34 5 -0.68 5 0 5 C0 3.35 0 1.7 0 0 Z " fill="#3F454A" transform="translate(139,452)"/>
<path d="M0 0 C2.31 0.33 4.62 0.66 7 1 C7.33 1.99 7.66 2.98 8 4 C6.68 4 5.36 4 4 4 C3.67 3.34 3.34 2.68 3 2 C2.01 1.34 1.02 0.68 0 0 Z " fill="#0F1A22" transform="translate(125,415)"/>
<path d="M0 0 C0.99 0.33 1.98 0.66 3 1 C3 1.66 3 2.32 3 3 C3.66 3 4.32 3 5 3 C5 3.66 5 4.32 5 5 C3.35 4.67 1.7 4.34 0 4 C0 2.68 0 1.36 0 0 Z " fill="#12181E" transform="translate(367,366)"/>
<path d="M0 0 C0.99 0.33 1.98 0.66 3 1 C3 1.66 3 2.32 3 3 C3.66 3.33 4.32 3.66 5 4 C3.35 4.33 1.7 4.66 0 5 C0 3.35 0 1.7 0 0 Z " fill="#32383E" transform="translate(129,275)"/>
<path d="M0 0 C0.33 0 0.66 0 1 0 C1 1.65 1 3.3 1 5 C0.34 5 -0.32 5 -1 5 C-1.33 5.99 -1.66 6.98 -2 8 C-2.6875 6.25 -2.6875 6.25 -3 4 C-1.625 1.75 -1.625 1.75 0 0 Z " fill="#0F1720" transform="translate(138,266)"/>
<path d="M0 0 C2.0343459 1.41519715 2.90410393 2.54982123 3.421875 4.98046875 C3.66273952 6.98176954 3.83532741 8.9909944 4 11 C3.566875 10.1028125 3.566875 10.1028125 3.125 9.1875 C1.95257974 6.80672208 1.95257974 6.80672208 0 4 C0 2.68 0 1.36 0 0 Z " fill="#7B7F81" transform="translate(140,237)"/>
<path d="M0 0 C0 0.99 0 1.98 0 3 C-2.64 3 -5.28 3 -8 3 C-6.23110084 -0.53779831 -3.70375662 0 0 0 Z " fill="#081119" transform="translate(124,186)"/>
<path d="M0 0 C0.33 0.66 0.66 1.32 1 2 C1.99 2.33 2.98 2.66 4 3 C-0.455 3.495 -0.455 3.495 -5 4 C-5 3.34 -5 2.68 -5 2 C-3.35 2 -1.7 2 0 2 C0 1.34 0 0.68 0 0 Z " fill="#0D161E" transform="translate(104,132)"/>
<path d="M0 0 C2.5 1.1875 2.5 1.1875 5 3 C5.3125 5.6875 5.3125 5.6875 5 8 C2.20127563 5.47211993 0.54226981 3.79588866 0 0 Z " fill="#6B7274" transform="translate(263,84)"/>
<path d="M0 0 C1.98 0 3.96 0 6 0 C6.33 0.66 6.66 1.32 7 2 C7.99 2.66 8.98 3.32 10 4 C5.78087253 3.5205537 3.20336822 2.83374881 0 0 Z " fill="#0A1119" transform="translate(212,33)"/>
</svg>
